<svg xmlns="http://www.w3.org/2000/svg" width="375" viewBox="0 0 375 375" height="375" version="1.0"><defs><clipPath id="a"><path d="M 17.175781 258 L 155 258 L 155 311 L 17.175781 311 Z M 17.175781 258"/></clipPath><clipPath id="b"><path d="M 130 316 L 169 316 L 169 337.527344 L 130 337.527344 Z M 130 316"/></clipPath><clipPath id="c"><path d="M 178 38 L 286 38 L 286 118 L 178 118 Z M 178 38"/></clipPath><clipPath id="d"><path d="M 158.222656 29.3125 L 282.277344 -11.1875 L 323.007812 113.582031 L 198.953125 154.082031 Z M 158.222656 29.3125"/></clipPath><clipPath id="e"><path d="M 158.222656 29.3125 L 282.277344 -11.1875 L 323.007812 113.582031 L 198.953125 154.082031 Z M 158.222656 29.3125"/></clipPath><clipPath id="f"><path d="M 158.222656 29.3125 L 282.277344 -11.1875 L 323.007812 113.582031 L 198.953125 154.082031 Z M 158.222656 29.3125"/></clipPath><clipPath id="g"><path d="M 189 38 L 195 38 L 195 53 L 189 53 Z M 189 38"/></clipPath><clipPath id="h"><path d="M 158.222656 29.3125 L 282.277344 -11.1875 L 323.007812 113.582031 L 198.953125 154.082031 Z M 158.222656 29.3125"/></clipPath><clipPath id="i"><path d="M 158.222656 29.3125 L 282.277344 -11.1875 L 323.007812 113.582031 L 198.953125 154.082031 Z M 158.222656 29.3125"/></clipPath><clipPath id="j"><path d="M 158.222656 29.3125 L 282.277344 -11.1875 L 323.007812 113.582031 L 198.953125 154.082031 Z M 158.222656 29.3125"/></clipPath><clipPath id="k"><path d="M 189 38 L 286 38 L 286 89 L 189 89 Z M 189 38"/></clipPath><clipPath id="l"><path d="M 158.222656 29.3125 L 282.277344 -11.1875 L 323.007812 113.582031 L 198.953125 154.082031 Z M 158.222656 29.3125"/></clipPath><clipPath id="m"><path d="M 158.222656 29.3125 L 282.277344 -11.1875 L 323.007812 113.582031 L 198.953125 154.082031 Z M 158.222656 29.3125"/></clipPath><clipPath id="n"><path d="M 158.222656 29.3125 L 282.277344 -11.1875 L 323.007812 113.582031 L 198.953125 154.082031 Z M 158.222656 29.3125"/></clipPath><clipPath id="o"><path d="M 180 70 L 273 70 L 273 114 L 180 114 Z M 180 70"/></clipPath><clipPath id="p"><path d="M 158.222656 29.3125 L 282.277344 -11.1875 L 323.007812 113.582031 L 198.953125 154.082031 Z M 158.222656 29.3125"/></clipPath><clipPath id="q"><path d="M 158.222656 29.3125 L 282.277344 -11.1875 L 323.007812 113.582031 L 198.953125 154.082031 Z M 158.222656 29.3125"/></clipPath><clipPath id="r"><path d="M 158.222656 29.3125 L 282.277344 -11.1875 L 323.007812 113.582031 L 198.953125 154.082031 Z M 158.222656 29.3125"/></clipPath><clipPath id="s"><path d="M 243 58 L 251 58 L 251 62 L 243 62 Z M 243 58"/></clipPath><clipPath id="t"><path d="M 158.222656 29.3125 L 282.277344 -11.1875 L 323.007812 113.582031 L 198.953125 154.082031 Z M 158.222656 29.3125"/></clipPath><clipPath id="u"><path d="M 158.222656 29.3125 L 282.277344 -11.1875 L 323.007812 113.582031 L 198.953125 154.082031 Z M 158.222656 29.3125"/></clipPath><clipPath id="v"><path d="M 158.222656 29.3125 L 282.277344 -11.1875 L 323.007812 113.582031 L 198.953125 154.082031 Z M 158.222656 29.3125"/></clipPath><clipPath id="w"><path d="M 223 79 L 243 79 L 243 112 L 223 112 Z M 223 79"/></clipPath><clipPath id="x"><path d="M 158.222656 29.3125 L 282.277344 -11.1875 L 323.007812 113.582031 L 198.953125 154.082031 Z M 158.222656 29.3125"/></clipPath><clipPath id="y"><path d="M 158.222656 29.3125 L 282.277344 -11.1875 L 323.007812 113.582031 L 198.953125 154.082031 Z M 158.222656 29.3125"/></clipPath><clipPath id="z"><path d="M 158.222656 29.3125 L 282.277344 -11.1875 L 323.007812 113.582031 L 198.953125 154.082031 Z M 158.222656 29.3125"/></clipPath><clipPath id="A"><path d="M 235 58 L 251 58 L 251 82 L 235 82 Z M 235 58"/></clipPath><clipPath id="B"><path d="M 158.222656 29.3125 L 282.277344 -11.1875 L 323.007812 113.582031 L 198.953125 154.082031 Z M 158.222656 29.3125"/></clipPath><clipPath id="C"><path d="M 158.222656 29.3125 L 282.277344 -11.1875 L 323.007812 113.582031 L 198.953125 154.082031 Z M 158.222656 29.3125"/></clipPath><clipPath id="D"><path d="M 158.222656 29.3125 L 282.277344 -11.1875 L 323.007812 113.582031 L 198.953125 154.082031 Z M 158.222656 29.3125"/></clipPath><clipPath id="E"><path d="M 225 100 L 234 100 L 234 108 L 225 108 Z M 225 100"/></clipPath><clipPath id="F"><path d="M 158.222656 29.3125 L 282.277344 -11.1875 L 323.007812 113.582031 L 198.953125 154.082031 Z M 158.222656 29.3125"/></clipPath><clipPath id="G"><path d="M 158.222656 29.3125 L 282.277344 -11.1875 L 323.007812 113.582031 L 198.953125 154.082031 Z M 158.222656 29.3125"/></clipPath><clipPath id="H"><path d="M 158.222656 29.3125 L 282.277344 -11.1875 L 323.007812 113.582031 L 198.953125 154.082031 Z M 158.222656 29.3125"/></clipPath><clipPath id="I"><path d="M 260 65 L 275 65 L 275 72 L 260 72 Z M 260 65"/></clipPath><clipPath id="J"><path d="M 158.222656 29.3125 L 282.277344 -11.1875 L 323.007812 113.582031 L 198.953125 154.082031 Z M 158.222656 29.3125"/></clipPath><clipPath id="K"><path d="M 158.222656 29.3125 L 282.277344 -11.1875 L 323.007812 113.582031 L 198.953125 154.082031 Z M 158.222656 29.3125"/></clipPath><clipPath id="L"><path d="M 158.222656 29.3125 L 282.277344 -11.1875 L 323.007812 113.582031 L 198.953125 154.082031 Z M 158.222656 29.3125"/></clipPath><clipPath id="M"><path d="M 240 83 L 269 83 L 269 118 L 240 118 Z M 240 83"/></clipPath><clipPath id="N"><path d="M 158.222656 29.3125 L 282.277344 -11.1875 L 323.007812 113.582031 L 198.953125 154.082031 Z M 158.222656 29.3125"/></clipPath><clipPath id="O"><path d="M 158.222656 29.3125 L 282.277344 -11.1875 L 323.007812 113.582031 L 198.953125 154.082031 Z M 158.222656 29.3125"/></clipPath><clipPath id="P"><path d="M 158.222656 29.3125 L 282.277344 -11.1875 L 323.007812 113.582031 L 198.953125 154.082031 Z M 158.222656 29.3125"/></clipPath><clipPath id="Q"><path d="M 253 65 L 275 65 L 275 86 L 253 86 Z M 253 65"/></clipPath><clipPath id="R"><path d="M 158.222656 29.3125 L 282.277344 -11.1875 L 323.007812 113.582031 L 198.953125 154.082031 Z M 158.222656 29.3125"/></clipPath><clipPath id="S"><path d="M 158.222656 29.3125 L 282.277344 -11.1875 L 323.007812 113.582031 L 198.953125 154.082031 Z M 158.222656 29.3125"/></clipPath><clipPath id="T"><path d="M 158.222656 29.3125 L 282.277344 -11.1875 L 323.007812 113.582031 L 198.953125 154.082031 Z M 158.222656 29.3125"/></clipPath><clipPath id="U"><path d="M 242 106 L 260 106 L 260 114 L 242 114 Z M 242 106"/></clipPath><clipPath id="V"><path d="M 158.222656 29.3125 L 282.277344 -11.1875 L 323.007812 113.582031 L 198.953125 154.082031 Z M 158.222656 29.3125"/></clipPath><clipPath id="W"><path d="M 158.222656 29.3125 L 282.277344 -11.1875 L 323.007812 113.582031 L 198.953125 154.082031 Z M 158.222656 29.3125"/></clipPath><clipPath id="X"><path d="M 158.222656 29.3125 L 282.277344 -11.1875 L 323.007812 113.582031 L 198.953125 154.082031 Z M 158.222656 29.3125"/></clipPath><clipPath id="Y"><path d="M 285 105 L 301 105 L 301 123 L 285 123 Z M 285 105"/></clipPath><clipPath id="Z"><path d="M 158.222656 29.3125 L 282.277344 -11.1875 L 323.007812 113.582031 L 198.953125 154.082031 Z M 158.222656 29.3125"/></clipPath><clipPath id="aa"><path d="M 158.222656 29.3125 L 282.277344 -11.1875 L 323.007812 113.582031 L 198.953125 154.082031 Z M 158.222656 29.3125"/></clipPath><clipPath id="ab"><path d="M 158.222656 29.3125 L 282.277344 -11.1875 L 323.007812 113.582031 L 198.953125 154.082031 Z M 158.222656 29.3125"/></clipPath><clipPath id="ac"><path d="M 165 26 L 235 26 L 235 75 L 165 75 Z M 165 26"/></clipPath><clipPath id="ad"><path d="M 158.222656 29.3125 L 282.277344 -11.1875 L 323.007812 113.582031 L 198.953125 154.082031 Z M 158.222656 29.3125"/></clipPath><clipPath id="ae"><path d="M 158.222656 29.3125 L 282.277344 -11.1875 L 323.007812 113.582031 L 198.953125 154.082031 Z M 158.222656 29.3125"/></clipPath><clipPath id="af"><path d="M 158.222656 29.3125 L 282.277344 -11.1875 L 323.007812 113.582031 L 198.953125 154.082031 Z M 158.222656 29.3125"/></clipPath><clipPath id="ag"><path d="M 166 26 L 314 26 L 314 86 L 166 86 Z M 166 26"/></clipPath><clipPath id="ah"><path d="M 158.222656 29.3125 L 282.277344 -11.1875 L 323.007812 113.582031 L 198.953125 154.082031 Z M 158.222656 29.3125"/></clipPath><clipPath id="ai"><path d="M 158.222656 29.3125 L 282.277344 -11.1875 L 323.007812 113.582031 L 198.953125 154.082031 Z M 158.222656 29.3125"/></clipPath><clipPath id="aj"><path d="M 158.222656 29.3125 L 282.277344 -11.1875 L 323.007812 113.582031 L 198.953125 154.082031 Z M 158.222656 29.3125"/></clipPath><clipPath id="ak"><path d="M 233 70 L 314 70 L 314 90 L 233 90 Z M 233 70"/></clipPath><clipPath id="al"><path d="M 158.222656 29.3125 L 282.277344 -11.1875 L 323.007812 113.582031 L 198.953125 154.082031 Z M 158.222656 29.3125"/></clipPath><clipPath id="am"><path d="M 158.222656 29.3125 L 282.277344 -11.1875 L 323.007812 113.582031 L 198.953125 154.082031 Z M 158.222656 29.3125"/></clipPath><clipPath id="an"><path d="M 158.222656 29.3125 L 282.277344 -11.1875 L 323.007812 113.582031 L 198.953125 154.082031 Z M 158.222656 29.3125"/></clipPath><clipPath id="ao"><path d="M 239 54 L 292 54 L 292 103 L 239 103 Z M 239 54"/></clipPath><clipPath id="ap"><path d="M 158.222656 29.3125 L 282.277344 -11.1875 L 323.007812 113.582031 L 198.953125 154.082031 Z M 158.222656 29.3125"/></clipPath><clipPath id="aq"><path d="M 158.222656 29.3125 L 282.277344 -11.1875 L 323.007812 113.582031 L 198.953125 154.082031 Z M 158.222656 29.3125"/></clipPath><clipPath id="ar"><path d="M 158.222656 29.3125 L 282.277344 -11.1875 L 323.007812 113.582031 L 198.953125 154.082031 Z M 158.222656 29.3125"/></clipPath><clipPath id="as"><path d="M 235 52 L 246 52 L 246 59 L 235 59 Z M 235 52"/></clipPath><clipPath id="at"><path d="M 158.222656 29.3125 L 282.277344 -11.1875 L 323.007812 113.582031 L 198.953125 154.082031 Z M 158.222656 29.3125"/></clipPath><clipPath id="au"><path d="M 158.222656 29.3125 L 282.277344 -11.1875 L 323.007812 113.582031 L 198.953125 154.082031 Z M 158.222656 29.3125"/></clipPath><clipPath id="av"><path d="M 158.222656 29.3125 L 282.277344 -11.1875 L 323.007812 113.582031 L 198.953125 154.082031 Z M 158.222656 29.3125"/></clipPath><clipPath id="aw"><path d="M 283 98 L 293 98 L 293 109 L 283 109 Z M 283 98"/></clipPath><clipPath id="ax"><path d="M 158.222656 29.3125 L 282.277344 -11.1875 L 323.007812 113.582031 L 198.953125 154.082031 Z M 158.222656 29.3125"/></clipPath><clipPath id="ay"><path d="M 158.222656 29.3125 L 282.277344 -11.1875 L 323.007812 113.582031 L 198.953125 154.082031 Z M 158.222656 29.3125"/></clipPath><clipPath id="az"><path d="M 158.222656 29.3125 L 282.277344 -11.1875 L 323.007812 113.582031 L 198.953125 154.082031 Z M 158.222656 29.3125"/></clipPath></defs><path fill="#815A69" d="M 130.957031 184.324219 C 131.199219 184.347656 131.445312 184.371094 131.6875 184.398438 C 131.394531 184.140625 131.125 183.855469 130.890625 183.535156 C 129.273438 181.328125 129.402344 178.40625 130.011719 175.894531 C 130.011719 175.894531 123.730469 176.554688 122.972656 169.335938 C 122.332031 163.226562 125.855469 155.425781 125.855469 155.425781 C 125.25 150.820312 124.898438 144.300781 126.136719 136.664062 C 127.484375 128.386719 130.199219 121.894531 132.410156 117.582031 C 116.035156 106.25 120.460938 96.375 120.460938 96.375 C 119.621094 91.488281 118.777344 86.601562 117.933594 81.714844 C 119.566406 83.128906 121.195312 84.539062 122.828125 85.949219 C 122.828125 85.949219 113.417969 75.140625 118.304688 71.347656 C 125.890625 65.460938 141.644531 83.195312 157.476562 86.363281 C 157.476562 86.363281 168.34375 80.238281 190.472656 77.914062 C 212.601562 75.585938 224.507812 79.320312 224.507812 79.320312 C 239.335938 72.929688 251.058594 52.304688 259.699219 56.484375 C 262.921875 58.042969 261.949219 62.894531 260.5625 66.707031 C 260.5625 66.707031 266.617188 71.746094 262.792969 81.414062 C 262.792969 81.414062 269.175781 90.15625 255.515625 104.640625 C 258.574219 108.398438 262.582031 114.183594 265.617188 122.003906 C 268.417969 129.214844 269.429688 135.664062 269.792969 140.296875 C 269.792969 140.296875 274.863281 147.191406 275.503906 153.304688 C 276.261719 160.519531 269.984375 161.179688 269.984375 161.179688 C 270.246094 161.628906 272.242188 165.164062 270.714844 168.839844 C 269.234375 172.398438 265.0625 174.597656 260.617188 173.875 C 260.316406 174.761719 259.1875 177.824219 256.324219 180.480469 C 260.878906 187.855469 270.597656 206.015625 267.210938 228.355469 C 266.375 233.890625 264.867188 238.761719 263.167969 242.902344 C 262.324219 245.820312 260.667969 250.078125 257.210938 254.164062 C 253.058594 259.070312 246.542969 263.453125 244.5 261.910156 C 242.730469 260.574219 245.285156 255.511719 243.582031 254.535156 C 242.359375 253.832031 240.496094 256.398438 236.816406 258.011719 C 233.640625 259.402344 230.351562 260.507812 227.007812 261.414062 C 230.246094 236.359375 233.484375 211.308594 236.71875 186.253906 C 226.503906 188.867188 214.621094 191.183594 201.308594 192.511719 C 195.015625 193.144531 189 193.488281 183.296875 193.628906 C 186.285156 203.730469 190.945312 226.703125 179.84375 250.972656 C 161.597656 290.855469 117.578125 297.496094 114.554688 297.898438 C 100.652344 216.933594 123.933594 190.324219 130.957031 184.324219"/><path fill="#693B4E" d="M 238.710938 257.414062 C 242.628906 257.136719 244.523438 258.097656 246.847656 258.070312 C 250.933594 258.023438 256.792969 254.917969 264.039062 240.441406 C 252.308594 275.070312 223.394531 289.417969 223.394531 289.417969 C 224.585938 280.171875 225.78125 270.925781 226.976562 261.675781 C 229.527344 259.953125 233.5625 257.773438 238.710938 257.414062"/><path fill="#693B4E" d="M 252.132812 80.957031 C 252.601562 81.234375 254.9375 82.691406 255.730469 85.726562 C 256.582031 89 254.972656 91.578125 254.703125 91.992188 C 255.121094 91.996094 256.910156 92.0625 258.347656 93.46875 C 260.289062 95.367188 259.871094 98.011719 259.828125 98.253906 C 258.390625 100.382812 256.953125 102.511719 255.515625 104.640625 C 254.785156 103.207031 253.640625 101.34375 251.859375 99.507812 C 248.988281 96.539062 245.878906 95.085938 244 94.382812 C 246.710938 89.90625 249.421875 85.429688 252.132812 80.957031"/><path fill="#693B4E" d="M 130.796875 93.710938 C 130.441406 94.042969 128.21875 96.203125 128.316406 99.617188 C 128.417969 103.410156 131.285156 105.53125 131.617188 105.769531 C 128.8125 106.046875 126.644531 108.183594 126.378906 110.664062 C 126.0625 113.632812 128.519531 116.613281 131.957031 116.8125 C 133.90625 114.546875 135.898438 112.042969 137.878906 109.296875 C 138.988281 107.761719 140.019531 106.25 140.980469 104.769531 C 137.585938 101.082031 134.191406 97.398438 130.796875 93.710938"/><path fill="#A58892" d="M 259.871094 61.480469 C 256.335938 59.835938 250.4375 67.378906 241.503906 74.757812 C 238.222656 77.472656 233.210938 81.253906 226.386719 85.074219 C 222.84375 84.125 217.757812 82.984375 211.554688 82.390625 C 198.128906 81.101562 187.710938 83.144531 179.996094 84.71875 C 173.875 85.96875 165.734375 88.078125 156.457031 91.820312 C 155.035156 91.707031 152.699219 91.421875 149.953125 90.585938 C 138.257812 87.023438 135.09375 78.285156 124.664062 76.316406 C 123.027344 76.003906 120.464844 75.71875 117.140625 76.222656 C 116.914062 73.996094 117.171875 72.226562 118.304688 71.347656 C 125.890625 65.460938 141.644531 83.195312 157.476562 86.363281 C 157.476562 86.363281 168.34375 80.238281 190.472656 77.914062 C 212.601562 75.585938 224.507812 79.320312 224.507812 79.320312 C 239.335938 72.929688 251.058594 52.304688 259.699219 56.484375 C 262.046875 57.621094 262.167969 60.507812 261.523438 63.46875 C 261.273438 62.832031 260.792969 61.910156 259.871094 61.480469"/><path fill="#F8DADA" d="M 143.769531 281.027344 C 158.789062 282.671875 169.898438 250.984375 169.898438 250.984375 C 187.164062 245.945312 179.71875 208.523438 176.703125 196.003906 C 176.355469 194.648438 176.007812 193.292969 175.660156 191.9375 C 174.839844 192 169.824219 192.300781 165.988281 188.542969 C 163.617188 186.214844 162.890625 183.5 162.648438 182.320312 C 161.484375 182.746094 159.203125 183.394531 156.417969 182.921875 C 155.066406 182.691406 151.855469 182.121094 149.785156 179.253906 C 148.179688 177.03125 148.195312 174.511719 148.273438 173.390625 C 148.273438 173.390625 143.253906 174.183594 141.019531 172.265625 C 138.214844 169.859375 141.121094 163.8125 141.121094 163.8125 C 139.054688 163.910156 136.316406 162.554688 135.425781 161.71875 C 128.621094 155.339844 136.78125 105.191406 166.640625 100.875 C 187.371094 97.882812 195.246094 123.308594 195.246094 123.308594 C 195.246094 123.308594 197.660156 96.800781 218.5625 95.417969 C 248.664062 93.429688 267.070312 140.789062 261.742188 148.441406 C 261.042969 149.445312 258.648438 151.339844 256.605469 151.675781 C 256.605469 151.675781 260.707031 156.984375 258.460938 159.921875 C 256.675781 162.261719 251.601562 162.53125 251.601562 162.53125 C 253.542969 164.148438 254.472656 166.636719 253.960938 168.941406 C 253.300781 171.894531 250.371094 174.105469 246.96875 173.953125 C 247.171875 174.300781 248.578125 176.820312 247.496094 179.714844 C 246.179688 183.230469 242.4375 183.953125 242.261719 183.984375 C 242.226562 184.132812 242.195312 184.28125 242.164062 184.433594 L 243.140625 184.324219 C 243.140625 184.324219 260.011719 205.925781 252.605469 240.390625 C 245.199219 274.855469 220.921875 291.3125 220.921875 291.3125 C 220.921875 291.3125 212.488281 297.691406 205.285156 291.3125 C 205.285156 291.3125 199.113281 298.722656 191.5 290.902344 C 191.5 290.902344 184.300781 297.691406 176.277344 292.136719 C 176.277344 292.136719 172.984375 298.515625 164.550781 292.34375 C 164.550781 292.34375 160.433594 299.339844 151.792969 293.578125 L 114.554688 297.898438 C 135.746094 293.78125 143.769531 281.027344 143.769531 281.027344"/><path fill="#DBA5A7" d="M 175.660156 191.9375 C 176.167969 191.914062 176.890625 191.816406 177.691406 191.492188 C 179.039062 190.941406 179.847656 190.039062 180.222656 189.558594 C 180.691406 189.933594 183.785156 192.328125 188.03125 191.578125 C 191.886719 190.898438 193.929688 188.117188 194.320312 187.566406 C 196.609375 190.050781 199.980469 191.058594 202.945312 190.121094 C 205.898438 189.195312 207.285156 186.714844 207.597656 186.121094 C 208.042969 186.523438 211.980469 189.9375 217.230469 188.859375 C 220.832031 188.121094 222.917969 185.703125 223.53125 184.933594 C 223.714844 185.132812 226.863281 188.359375 231.277344 187.453125 C 234.960938 186.695312 236.667969 183.644531 236.902344 183.207031 C 237.097656 183.425781 238.355469 184.769531 240.332031 184.734375 C 241.6875 184.710938 242.632812 184.054688 242.964844 183.796875 C 243.535156 185.65625 244.105469 187.511719 244.675781 189.367188 C 243.460938 190.410156 240.503906 192.660156 236.058594 193.355469 C 230.800781 194.179688 226.746094 192.308594 225.375 191.601562 C 224.992188 192.257812 223.046875 195.460938 218.992188 196.546875 C 213.953125 197.894531 209.996094 194.808594 209.578125 194.472656 C 208.789062 195.246094 206.664062 197.113281 203.355469 197.664062 C 198.628906 198.445312 195.097656 195.929688 194.421875 195.429688 C 193.058594 196.300781 190.398438 197.738281 186.738281 198.121094 C 182.25 198.59375 178.785156 197.210938 177.292969 196.503906 C 176.75 194.980469 176.203125 193.457031 175.660156 191.9375"/><path fill="#693B4E" d="M 200.941406 298.644531 C 196.839844 304.339844 190.304688 312.074219 180.625 319.28125 C 170.5625 326.773438 160.902344 330.871094 154.117188 333.148438 C 153.414062 333.667969 149.90625 336.148438 145.082031 335.46875 C 140.941406 334.886719 138.441406 332.347656 137.75 331.589844 C 134.96875 330.710938 126.308594 328.242188 121.546875 319.691406 C 118.234375 313.738281 116.835938 307.789062 116.835938 307.789062 C 130.777344 303.722656 148.105469 300.015625 168.175781 298.644531 C 180.164062 297.828125 191.167969 297.980469 200.941406 298.644531"/><path fill="#693B4E" d="M 34.230469 286.40625 C 48.507812 286.296875 55.722656 291.507812 75.019531 295.472656 C 81.230469 296.746094 86.324219 297.4375 89.445312 297.808594 C 87.089844 291.972656 83.117188 284.03125 76.273438 276.234375 C 66.804688 265.449219 57.335938 261.191406 57.570312 260.824219 C 57.894531 260.320312 76.441406 267.820312 90.441406 285.734375 C 94.289062 290.660156 96.917969 295.253906 98.652344 298.679688 C 102.269531 298.574219 107.808594 298.363281 114.554688 297.898438 C 133.914062 296.558594 148.128906 294.167969 151.792969 293.578125 C 151.878906 293.5625 151.964844 293.550781 152.050781 293.535156 C 154.453125 295.035156 157.378906 296.195312 160.207031 295.289062 C 161.597656 294.84375 162.816406 294.023438 164.140625 293.425781 C 164.714844 293.167969 165.300781 293.027344 165.917969 293.210938 C 166.441406 293.367188 166.929688 293.613281 167.453125 293.765625 C 168.511719 294.078125 169.664062 294.164062 170.761719 294.222656 C 171.972656 294.285156 173.203125 294.277344 174.40625 294.097656 C 174.917969 294.023438 175.441406 293.9375 175.894531 293.675781 C 176.535156 293.304688 177.089844 292.855469 177.871094 293.097656 C 178.550781 293.304688 179.1875 293.617188 179.875 293.808594 C 180.613281 294.019531 181.367188 294.183594 182.132812 294.242188 C 183.707031 294.363281 185.253906 293.914062 186.675781 293.269531 C 187.289062 292.988281 187.859375 292.6875 188.417969 292.304688 C 188.929688 291.953125 189.441406 291.582031 190 291.304688 C 190.265625 291.175781 190.570312 291.039062 190.871094 291.074219 C 191.179688 291.109375 191.480469 291.242188 191.757812 291.382812 C 192.3125 291.65625 192.816406 292.019531 193.363281 292.304688 C 194.007812 292.640625 194.589844 293.019531 195.164062 293.460938 C 195.671875 293.847656 196.183594 294.273438 196.785156 294.507812 C 197.972656 294.96875 199.351562 294.839844 200.5625 294.53125 C 201.160156 294.375 201.746094 294.160156 202.304688 293.882812 C 202.902344 293.585938 203.414062 293.195312 203.960938 292.816406 C 204.488281 292.449219 205.140625 292.074219 205.792969 292.335938 C 206.386719 292.578125 206.898438 293.011719 207.417969 293.378906 C 208.261719 293.980469 209.246094 294.308594 210.265625 294.472656 C 212.492188 294.828125 214.835938 294.464844 216.9375 293.6875 C 218.476562 293.117188 219.996094 292.285156 221.175781 291.117188 C 222.136719 291.148438 223.109375 291.183594 224.09375 291.214844 C 248.488281 292.042969 281.699219 295.015625 320.960938 304.09375 C 317.652344 308.890625 314.339844 313.683594 311.027344 318.480469 C 300.398438 315.230469 289.375 312.355469 277.949219 309.929688 C 277.132812 309.753906 276.3125 309.582031 275.492188 309.414062 C 273.980469 312.5625 271.132812 317.464844 266.035156 322.015625 C 259.378906 327.953125 252.371094 330.1875 248.726562 331.078125 C 253.019531 322.992188 257.316406 314.90625 261.613281 306.824219 C 256.300781 305.925781 249.089844 304.832031 240.484375 303.886719 C 238.265625 303.644531 234.371094 303.230469 229.296875 302.828125 C 206.484375 301.011719 178.417969 298.773438 148.144531 304.132812 C 145.78125 304.550781 134.894531 306.894531 112.84375 308.023438 C 94.871094 308.941406 86.398438 307.722656 79.722656 306.105469 C 76.765625 305.386719 79.175781 305.808594 57.761719 298.609375 C 45.828125 294.597656 39.257812 292.511719 30.886719 290.480469 C 25.980469 289.292969 21.917969 288.480469 19.238281 287.972656 C 22.671875 287.277344 27.882812 286.453125 34.230469 286.40625"/><path fill="#511241" d="M 42.621094 291.371094 C 57.28125 294.953125 60.847656 297.914062 72.171875 300.761719 C 82.945312 303.46875 91.328125 303.703125 99.507812 303.9375 C 112.367188 304.300781 118.695312 302.90625 134.996094 301.035156 C 163.128906 297.808594 184.914062 297.296875 195.992188 297.066406 C 208.847656 296.796875 216.699219 296.652344 227.824219 297.425781 C 231.675781 297.691406 244.324219 298.597656 260.691406 301.320312 C 262.289062 301.585938 263.742188 301.839844 265.003906 302.066406 C 266.460938 302.328125 267.40625 303.753906 267.074219 305.199219 C 266.792969 306.414062 266.453125 307.6875 266.039062 309.007812 C 264.742188 313.128906 263.078125 316.546875 261.515625 319.222656 C 263.328125 318.347656 267.074219 316.234375 270.011719 311.921875 C 271.625 309.554688 272.507812 307.234375 273.003906 305.386719 C 273.347656 304.109375 274.59375 303.289062 275.898438 303.492188 C 279.507812 304.046875 283.214844 304.695312 287 305.4375 C 297.167969 307.433594 306.566406 309.871094 315.148438 312.515625 C 313.773438 314.503906 312.402344 316.492188 311.027344 318.480469 C 300.398438 315.230469 289.375 312.351562 277.949219 309.929688 C 277.132812 309.753906 276.3125 309.582031 275.492188 309.414062 C 273.984375 312.5625 271.132812 317.464844 266.035156 322.015625 C 259.378906 327.953125 252.371094 330.1875 248.726562 331.078125 C 253.023438 322.992188 257.320312 314.90625 261.613281 306.824219 C 256.300781 305.925781 249.09375 304.832031 240.488281 303.886719 C 238.269531 303.644531 234.371094 303.230469 229.292969 302.828125 C 206.484375 301.011719 178.417969 298.773438 148.144531 304.132812 C 145.78125 304.550781 134.894531 306.894531 112.84375 308.023438 C 94.871094 308.941406 86.398438 307.722656 79.722656 306.105469 C 78.105469 305.710938 78.09375 305.660156 74.898438 304.511719 C 73.300781 303.9375 68.144531 302.101562 57.761719 298.609375 C 41.636719 293.183594 24.648438 289.015625 24.808594 288.332031 C 24.921875 287.851562 33.496094 289.140625 42.621094 291.371094"/><path fill="#F6B9B6" d="M 194.136719 293.449219 C 195.183594 294.015625 196.332031 294.445312 197.539062 294.386719 C 200.011719 294.269531 202.070312 292.5625 204.523438 292.371094 C 205.136719 292.324219 205.71875 292.394531 206.296875 292.59375 C 206.839844 292.777344 207.351562 293.039062 207.875 293.265625 C 208.414062 293.496094 208.949219 293.667969 209.527344 293.769531 C 210.097656 293.875 210.675781 293.929688 211.257812 293.949219 C 212.445312 293.984375 213.671875 293.882812 214.816406 293.535156 C 216.078125 293.152344 217.246094 292.480469 218.371094 291.816406 C 219.507812 291.148438 220.648438 290.507812 221.820312 289.90625 C 222.433594 289.59375 223.050781 289.273438 223.636719 288.90625 L 224.605469 288.765625 C 225.144531 289.492188 226.117188 290.957031 226.800781 292.84375 C 226.800781 292.84375 232.914062 306.636719 214.070312 306.636719 L 207.078125 306.636719 C 190.589844 306.636719 193.207031 296.082031 194.121094 293.4375 C 194.125 293.441406 194.128906 293.445312 194.136719 293.449219"/><path fill="#E28DA0" d="M 201.191406 297.054688 C 203.234375 296.722656 204.742188 295.867188 205.617188 295.265625 C 206.941406 296.140625 208.597656 296.941406 210.574219 297.332031 C 218.722656 298.925781 225.375 292.140625 226.152344 291.320312 C 225.589844 290.171875 224.988281 289.28125 224.605469 288.765625 L 223.636719 288.90625 C 223.050781 289.273438 222.4375 289.59375 221.820312 289.90625 C 220.652344 290.507812 219.507812 291.148438 218.371094 291.816406 C 217.246094 292.480469 216.074219 293.152344 214.816406 293.535156 C 213.671875 293.882812 212.449219 293.984375 211.257812 293.949219 C 210.679688 293.929688 210.097656 293.875 209.527344 293.769531 C 208.953125 293.667969 208.414062 293.496094 207.878906 293.265625 C 207.351562 293.039062 206.839844 292.777344 206.296875 292.59375 C 205.71875 292.394531 205.136719 292.324219 204.523438 292.371094 C 202.070312 292.5625 200.011719 294.269531 197.539062 294.386719 C 196.332031 294.445312 195.183594 294.015625 194.136719 293.449219 C 194.132812 293.445312 194.125 293.441406 194.121094 293.4375 C 193.957031 293.910156 193.738281 294.636719 193.585938 295.511719 C 194.484375 296.050781 197.417969 297.664062 201.191406 297.054688"/><path fill="#E28DA0" d="M 197.109375 301.496094 C 199.242188 301.808594 201.410156 301.628906 203.550781 301.53125 C 206.632812 301.382812 209.726562 301.574219 212.804688 301.644531 C 214.585938 301.6875 216.371094 301.710938 218.152344 301.667969 C 219.761719 301.625 221.390625 301.570312 222.984375 301.3125 C 224.445312 301.070312 225.882812 300.667969 227.261719 300.136719 C 227.3125 300.117188 227.363281 300.097656 227.414062 300.078125 C 226.460938 303.410156 223.1875 306.636719 214.070312 306.636719 L 207.078125 306.636719 C 198.140625 306.636719 194.816406 303.535156 193.792969 300.273438 C 194.742188 300.953125 195.925781 301.324219 197.109375 301.496094"/><path fill="#F6B9B6" d="M 152.183594 294.910156 C 153.128906 295.316406 154.136719 295.554688 155.160156 295.644531 C 156.246094 295.738281 157.34375 295.671875 158.378906 295.328125 C 158.882812 295.160156 159.382812 294.945312 159.839844 294.679688 C 160.273438 294.429688 160.683594 294.136719 161.09375 293.851562 C 161.140625 293.816406 161.191406 293.78125 161.238281 293.75 L 184.476562 294.171875 C 185.386719 296.808594 188.007812 307.371094 171.515625 307.371094 L 164.523438 307.371094 C 148.730469 307.371094 150.46875 297.683594 151.445312 294.546875 C 151.683594 294.679688 151.933594 294.800781 152.183594 294.910156"/><path fill="#E28DA0" d="M 155.652344 299.070312 C 160.269531 299.601562 163.832031 297.636719 165.132812 296.828125 C 166.316406 297.359375 168.878906 298.316406 172.148438 297.949219 C 174.355469 297.703125 176.046875 296.945312 177.078125 296.382812 C 178.023438 296.941406 179.644531 297.726562 181.78125 297.949219 C 182.917969 298.066406 183.914062 297.996094 184.691406 297.875 C 184.828125 297.515625 185.011719 296.910156 184.992188 296.144531 C 184.96875 295.222656 184.664062 294.53125 184.472656 294.171875 L 161.238281 293.75 C 161.191406 293.78125 161.140625 293.816406 161.09375 293.851562 C 160.683594 294.136719 160.273438 294.429688 159.839844 294.679688 C 159.378906 294.945312 158.882812 295.160156 158.378906 295.328125 C 157.339844 295.671875 156.242188 295.738281 155.160156 295.644531 C 154.136719 295.554688 153.128906 295.316406 152.183594 294.910156 C 151.933594 294.800781 151.683594 294.679688 151.445312 294.546875 C 151.246094 295.046875 151.046875 295.730469 150.984375 296.554688 C 150.949219 296.96875 150.960938 297.34375 150.988281 297.675781 C 152.105469 298.230469 153.6875 298.84375 155.652344 299.070312"/><path fill="#E28DA0" d="M 156.332031 301.304688 C 158.898438 301.6875 161.492188 301.660156 164.078125 301.660156 L 177.527344 301.660156 C 178.910156 301.660156 180.292969 301.636719 181.671875 301.683594 C 182.597656 301.710938 183.578125 301.761719 184.542969 301.707031 C 183.269531 304.699219 179.8125 307.371094 171.515625 307.371094 L 164.523438 307.371094 C 154.453125 307.371094 151.511719 303.429688 150.953125 299.761719 C 152.671875 300.503906 154.472656 301.023438 156.332031 301.304688"/><path fill="#693B4E" d="M 247.601562 191.9375 C 249.585938 191.625 252.507812 190.910156 255.617188 189.136719 C 257.578125 188.019531 259.09375 186.78125 260.210938 185.710938 C 258.914062 183.96875 257.621094 182.226562 256.324219 180.480469 C 255.421875 181.390625 253.496094 183.089844 250.507812 184.027344 C 247.203125 185.0625 244.398438 184.605469 243.140625 184.324219 C 244.628906 186.863281 246.113281 189.398438 247.601562 191.9375"/><path fill="#693B4E" d="M 161.882812 188.59375 C 162.921875 189.582031 165.984375 192.226562 170.621094 192.632812 C 172.949219 192.839844 174.875 192.414062 176.132812 192.011719 C 176.59375 193.804688 177.054688 195.59375 177.519531 197.386719 C 176.144531 198.144531 173.367188 199.4375 169.632812 199.550781 C 166.285156 199.65625 163.679688 198.765625 162.269531 198.164062 C 161.4375 198.695312 155.828125 202.136719 148.972656 200.066406 C 143.296875 198.355469 140.523438 193.992188 139.875 192.914062 C 138.671875 193.34375 136.117188 194.074219 132.9375 193.546875 C 129.121094 192.914062 126.660156 190.84375 125.734375 189.976562 C 127.453125 187.832031 129.171875 185.683594 130.890625 183.535156 C 130.65625 182.222656 130.429688 180.90625 130.199219 179.59375 C 131.546875 180.304688 133.894531 181.3125 136.976562 181.550781 C 139.464844 181.738281 141.511719 181.359375 142.859375 180.992188 C 143.355469 181.964844 146.046875 186.984375 152.105469 188.851562 C 156.679688 190.261719 160.558594 189.066406 161.882812 188.59375"/><path fill="#693B4E" d="M 138.554688 275.035156 C 139.226562 274.328125 140.097656 273.84375 141.054688 273.644531 C 142.515625 273.339844 144.339844 272.800781 146.292969 271.824219 C 146.292969 271.824219 149.164062 270.390625 151.875 267.816406 C 155.394531 264.472656 159.527344 257.429688 162.707031 247.839844 C 163.164062 246.460938 164.25 245.382812 165.640625 244.957031 C 168.464844 244.09375 172.191406 242.355469 174.589844 238.765625 C 176.21875 236.328125 176.644531 233.917969 176.855469 232.320312 C 178.417969 220.605469 176.039062 196.351562 175.699219 192.953125 C 178.960938 205.265625 180.265625 215.636719 180.820312 223.105469 C 181.664062 234.398438 180.871094 239.984375 177.4375 244.691406 C 175.023438 248 172.003906 249.910156 169.898438 250.988281 C 169.457031 253.746094 166.101562 272.882812 151.257812 279.175781 C 149.269531 280.019531 146.785156 280.753906 143.769531 281.027344 C 141.371094 283.984375 137.25 288.339844 131 292.003906 C 124.46875 295.835938 118.382812 297.289062 114.554688 297.898438 C 114.269531 296.234375 113.992188 294.542969 113.722656 292.832031 C 113.460938 291.164062 113.214844 289.523438 112.988281 287.90625 C 116.339844 287.5 121.375 286.480469 126.890625 283.707031 C 132.28125 280.992188 136.101562 277.617188 138.554688 275.035156"/><path fill="#DBA5A7" d="M 253.855469 219.886719 C 253.308594 220.726562 251.636719 223.046875 248.597656 223.921875 C 244.875 224.996094 240.625 223.457031 237.847656 220.019531 C 237.539062 220.5625 234.625 225.53125 228.679688 226.253906 C 224.164062 226.800781 219.652344 224.6875 217.019531 220.808594 C 216.703125 221.390625 213.929688 226.304688 207.96875 227.257812 C 201.535156 228.292969 197.160156 223.789062 196.800781 223.40625 C 196.453125 224.078125 194.949219 226.792969 191.601562 228.03125 C 188.859375 229.042969 186.46875 228.476562 185.640625 228.238281 C 186.058594 229.902344 188.476562 240.246094 182.03125 248.980469 C 179.171875 252.855469 175.648438 254.945312 173.421875 256.011719 C 173.183594 257.699219 170.058594 277.597656 154.710938 283.554688 C 152.394531 284.457031 149.070312 285.320312 144.78125 285.167969 C 144.105469 286.785156 142.863281 289.101562 140.589844 291.183594 C 135.140625 296.183594 128.164062 295.796875 126.652344 295.679688 C 132.359375 290.796875 138.0625 285.910156 143.769531 281.027344 C 147.089844 279.96875 153.445312 277.4375 159.21875 271.484375 C 166.703125 263.765625 168.65625 254.988281 169.230469 251.574219 C 171.523438 249.972656 175.613281 246.644531 178.523438 240.984375 C 182.785156 232.699219 181.722656 224.835938 181.242188 222.160156 C 182.167969 222.949219 184.082031 224.320312 186.632812 224.382812 C 190.722656 224.484375 194.785156 221.195312 196.410156 216.121094 C 198.097656 220.503906 202.386719 223.269531 206.859375 222.964844 C 211.847656 222.621094 216.035156 218.523438 216.515625 213.265625 C 217.191406 218.441406 221.871094 222.179688 226.964844 221.726562 C 231.917969 221.289062 235.8125 217.019531 235.777344 211.953125 C 237.984375 217.585938 243.320312 220.402344 247.472656 219.199219 C 251.078125 218.160156 252.671875 214.421875 252.9375 213.777344 C 253.242188 215.8125 253.546875 217.851562 253.855469 219.886719"/><path fill="#FFF" d="M 167.472656 116.785156 C 185.980469 116.351562 191.9375 161.222656 161.8125 162.738281 C 138.785156 163.898438 140.152344 117.421875 167.472656 116.785156"/><path fill="#511241" d="M 167.546875 119.871094 C 165.144531 119.921875 162.816406 120.382812 160.671875 121.28125 C 158.523438 122.179688 156.5625 123.527344 154.871094 125.226562 C 153.175781 126.925781 151.746094 128.972656 150.617188 131.210938 C 149.480469 133.449219 148.625 135.882812 148.105469 138.410156 C 147.566406 140.929688 147.335938 143.542969 147.46875 146.144531 C 147.605469 148.746094 148.097656 151.347656 149.09375 153.753906 C 150.089844 156.152344 151.59375 158.378906 153.695312 159.953125 C 155.78125 161.539062 158.425781 162.382812 161.128906 162.472656 C 161.46875 162.488281 161.804688 162.457031 162.144531 162.417969 C 162.484375 162.382812 162.820312 162.335938 163.160156 162.289062 C 163.832031 162.1875 164.5 162.066406 165.160156 161.914062 C 166.480469 161.613281 167.769531 161.210938 169 160.683594 C 171.464844 159.648438 173.65625 158.078125 175.402344 156.152344 C 177.15625 154.226562 178.4375 151.933594 179.292969 149.507812 C 180.148438 147.078125 180.578125 144.507812 180.664062 141.941406 C 180.765625 139.378906 180.515625 136.800781 179.96875 134.324219 C 179.433594 131.84375 178.597656 129.445312 177.460938 127.28125 C 176.328125 125.128906 174.875 123.199219 173.164062 121.855469 C 171.453125 120.507812 169.546875 119.8125 167.546875 119.871094 Z M 167.398438 113.695312 C 169.148438 113.660156 170.9375 113.957031 172.582031 114.566406 C 174.226562 115.179688 175.710938 116.101562 176.992188 117.167969 C 179.554688 119.324219 181.316406 122.03125 182.574219 124.820312 C 185.054688 130.433594 185.648438 136.523438 184.804688 142.347656 C 184.355469 145.257812 183.511719 148.109375 182.207031 150.75 C 180.90625 153.386719 179.121094 155.792969 176.929688 157.714844 C 175.835938 158.679688 174.640625 159.515625 173.382812 160.210938 C 172.121094 160.90625 170.792969 161.460938 169.445312 161.894531 C 168.09375 162.324219 166.707031 162.613281 165.316406 162.796875 C 164.621094 162.882812 163.921875 162.945312 163.226562 162.984375 C 162.53125 163.023438 161.835938 163.007812 161.136719 163.042969 C 159.738281 163.121094 158.3125 163.019531 156.921875 162.695312 C 155.53125 162.375 154.179688 161.824219 152.945312 161.066406 C 150.457031 159.5625 148.472656 157.28125 147.078125 154.738281 C 145.667969 152.1875 144.761719 149.378906 144.269531 146.515625 C 143.773438 143.648438 143.675781 140.707031 143.945312 137.785156 C 144.242188 134.867188 144.898438 131.953125 145.996094 129.160156 C 147.097656 126.371094 148.648438 123.691406 150.707031 121.355469 C 152.753906 119.019531 155.332031 117.054688 158.230469 115.738281 C 159.679688 115.085938 161.195312 114.582031 162.742188 114.246094 C 164.285156 113.910156 165.847656 113.746094 167.398438 113.695312"/><path fill="#FFF" d="M 221.050781 111.152344 C 202.855469 114.578125 206.363281 159.707031 236.144531 154.925781 C 258.910156 151.269531 247.90625 106.097656 221.050781 111.152344"/><path fill="#511241" d="M 220.480469 108.117188 C 222.007812 107.839844 223.574219 107.679688 225.15625 107.6875 C 226.730469 107.691406 228.320312 107.871094 229.871094 108.210938 C 232.984375 108.894531 235.914062 110.277344 238.402344 112.136719 C 240.902344 113.992188 242.972656 116.292969 244.632812 118.789062 C 246.285156 121.296875 247.535156 124.007812 248.429688 126.800781 C 249.300781 129.605469 249.816406 132.5 249.929688 135.410156 C 250.042969 138.3125 249.742188 141.246094 248.890625 144.035156 C 248.054688 146.816406 246.589844 149.457031 244.46875 151.449219 C 243.417969 152.445312 242.210938 153.265625 240.917969 153.867188 C 239.625 154.472656 238.25 154.867188 236.867188 155.082031 C 236.175781 155.195312 235.5 155.355469 234.808594 155.460938 C 234.121094 155.566406 233.425781 155.652344 232.726562 155.710938 C 231.328125 155.820312 229.914062 155.828125 228.5 155.6875 C 227.089844 155.539062 225.679688 155.277344 224.300781 154.859375 C 222.921875 154.441406 221.582031 153.867188 220.308594 153.15625 C 217.769531 151.726562 215.519531 149.75 213.703125 147.4375 C 211.878906 145.128906 210.457031 142.511719 209.410156 139.761719 C 207.378906 134.238281 206.691406 128.160156 207.949219 122.152344 C 208.601562 119.164062 209.761719 116.152344 211.820312 113.507812 C 212.851562 112.199219 214.109375 110.988281 215.59375 110.046875 C 217.078125 109.105469 218.761719 108.445312 220.480469 108.117188 Z M 221.625 114.1875 C 219.652344 114.542969 217.929688 115.625 216.535156 117.296875 C 215.144531 118.964844 214.121094 121.15625 213.460938 123.496094 C 212.804688 125.847656 212.484375 128.367188 212.472656 130.90625 C 212.457031 133.445312 212.75 136.015625 213.382812 138.503906 C 213.996094 140.996094 214.953125 143.417969 216.292969 145.617188 C 217.632812 147.8125 219.363281 149.792969 221.480469 151.3125 C 223.589844 152.832031 226.058594 153.910156 228.683594 154.410156 C 229.996094 154.671875 231.34375 154.796875 232.695312 154.816406 C 233.375 154.824219 234.050781 154.808594 234.730469 154.765625 C 235.070312 154.742188 235.410156 154.71875 235.75 154.679688 C 236.089844 154.648438 236.425781 154.605469 236.753906 154.523438 C 239.382812 153.875 241.789062 152.496094 243.503906 150.511719 C 245.230469 148.535156 246.238281 146.042969 246.714844 143.492188 C 247.191406 140.933594 247.128906 138.28125 246.726562 135.710938 C 246.316406 133.136719 245.546875 130.628906 244.488281 128.277344 C 243.457031 125.917969 242.117188 123.710938 240.539062 121.757812 C 238.96875 119.800781 237.148438 118.101562 235.136719 116.789062 C 233.125 115.480469 230.925781 114.574219 228.640625 114.136719 C 226.355469 113.707031 223.980469 113.734375 221.625 114.1875"/><path fill="#511241" d="M 170.847656 118.738281 C 160.027344 116.230469 148.90625 131.429688 150.933594 144.453125 C 152.011719 151.382812 157.621094 160.0625 165.671875 160.367188 C 174.160156 160.691406 180.011719 151.503906 181.78125 145.105469 C 184.835938 134.078125 178.769531 120.574219 170.847656 118.738281"/><path fill="#FFF" d="M 177.304688 130.378906 C 177.527344 132.472656 176.007812 134.347656 173.914062 134.566406 C 171.824219 134.785156 169.949219 133.269531 169.730469 131.175781 C 169.511719 129.085938 171.027344 127.210938 173.121094 126.992188 C 175.210938 126.769531 177.085938 128.289062 177.304688 130.378906"/><path fill="#511241" d="M 218.160156 113.761719 C 228.21875 109.0625 242.257812 121.617188 242.984375 134.777344 C 243.371094 141.78125 239.6875 151.4375 231.875 153.410156 C 223.640625 155.492188 216.003906 147.71875 212.941406 141.832031 C 207.664062 131.679688 210.789062 117.207031 218.160156 113.761719"/><path fill="#FFF" d="M 214.261719 126.496094 C 214.480469 128.589844 216.355469 130.105469 218.445312 129.886719 C 220.539062 129.667969 222.054688 127.792969 221.835938 125.699219 C 221.617188 123.609375 219.742188 122.089844 217.652344 122.3125 C 215.558594 122.53125 214.039062 124.40625 214.261719 126.496094"/><path fill="#511241" d="M 160.167969 171.992188 C 159.996094 171.992188 159.824219 171.949219 159.667969 171.859375 L 155.90625 169.65625 C 155.4375 169.378906 155.277344 168.777344 155.554688 168.304688 C 155.828125 167.835938 156.429688 167.679688 156.902344 167.953125 L 160.664062 170.15625 C 161.132812 170.433594 161.292969 171.035156 161.015625 171.503906 C 160.835938 171.816406 160.503906 171.992188 160.167969 171.992188"/><path fill="#511241" d="M 165.242188 170.828125 C 165.074219 170.828125 164.902344 170.78125 164.746094 170.691406 L 160.984375 168.488281 C 160.515625 168.214844 160.359375 167.609375 160.632812 167.140625 C 160.90625 166.671875 161.507812 166.511719 161.980469 166.789062 L 165.742188 168.992188 C 166.210938 169.265625 166.371094 169.871094 166.09375 170.339844 C 165.910156 170.652344 165.582031 170.828125 165.242188 170.828125"/><path fill="#511241" d="M 237.820312 163.832031 C 237.652344 163.832031 237.480469 163.789062 237.324219 163.695312 L 233.5625 161.492188 C 233.09375 161.21875 232.933594 160.613281 233.207031 160.144531 C 233.484375 159.675781 234.085938 159.515625 234.554688 159.792969 L 238.320312 161.996094 C 238.789062 162.269531 238.945312 162.875 238.671875 163.34375 C 238.488281 163.65625 238.160156 163.832031 237.820312 163.832031"/><path fill="#511241" d="M 242.898438 162.664062 C 242.730469 162.664062 242.558594 162.621094 242.402344 162.53125 L 238.640625 160.328125 C 238.167969 160.050781 238.011719 159.449219 238.285156 158.980469 C 238.5625 158.507812 239.164062 158.351562 239.632812 158.625 L 243.398438 160.828125 C 243.867188 161.105469 244.023438 161.707031 243.75 162.175781 C 243.566406 162.488281 243.238281 162.664062 242.898438 162.664062"/><path fill="#731547" d="M 156.347656 133.898438 C 157.769531 135.804688 159.824219 138.125 162.679688 140.289062 C 168.152344 144.425781 173.71875 145.832031 176.910156 146.371094 C 175.640625 151.898438 171.570312 155.871094 166.976562 156.300781 C 162.800781 156.691406 159.71875 154.007812 159.292969 153.625 C 155.585938 150.296875 155.515625 145.15625 155.460938 141.222656 C 155.417969 138.078125 155.925781 135.527344 156.347656 133.898438"/><path fill="#731547" d="M 235.492188 125.578125 C 234.496094 127.742188 232.972656 130.4375 230.625 133.148438 C 226.132812 138.332031 220.980469 140.867188 217.972656 142.054688 C 221.457031 147.75 226.984375 150.59375 231.226562 149.304688 C 234.300781 148.367188 236 145.464844 236.648438 144.359375 C 239.199219 140.003906 238.371094 135.335938 237.878906 132.558594 C 237.324219 129.425781 236.253906 127.027344 235.492188 125.578125"/><path fill="#511241" d="M 255.515625 106.609375 C 254.90625 106.609375 254.304688 106.324219 253.917969 105.792969 C 252.898438 104.378906 251.78125 103.015625 250.601562 101.742188 C 248.285156 99.246094 245.65625 97.023438 242.785156 95.132812 C 242.300781 94.8125 241.980469 94.296875 241.914062 93.71875 C 241.847656 93.144531 242.035156 92.566406 242.433594 92.144531 C 244.644531 89.785156 246.582031 87.175781 248.1875 84.402344 C 248.976562 83.039062 249.699219 81.613281 250.328125 80.167969 C 250.765625 79.171875 251.925781 78.71875 252.921875 79.152344 C 253.914062 79.589844 254.371094 80.75 253.933594 81.746094 C 253.242188 83.324219 252.457031 84.882812 251.59375 86.375 C 250.210938 88.757812 248.609375 91.027344 246.816406 93.140625 C 249.226562 94.902344 251.464844 96.890625 253.484375 99.0625 C 254.773438 100.457031 255.996094 101.945312 257.113281 103.492188 C 257.746094 104.371094 257.546875 105.601562 256.667969 106.234375 C 256.316406 106.488281 255.914062 106.609375 255.515625 106.609375"/><path fill="#511241" d="M 132.410156 119.546875 C 132.144531 119.546875 131.875 119.496094 131.617188 119.378906 C 130.621094 118.941406 130.171875 117.78125 130.609375 116.789062 C 131.378906 115.042969 132.261719 113.332031 133.238281 111.703125 C 134.757812 109.15625 136.535156 106.75 138.527344 104.523438 C 136.332031 102.828125 134.292969 100.941406 132.449219 98.894531 C 131.292969 97.621094 130.199219 96.257812 129.195312 94.855469 C 128.5625 93.972656 128.765625 92.746094 129.648438 92.113281 C 130.53125 91.480469 131.761719 91.679688 132.394531 92.566406 C 133.3125 93.847656 134.3125 95.09375 135.371094 96.261719 C 137.515625 98.640625 139.953125 100.789062 142.609375 102.636719 C 143.085938 102.96875 143.390625 103.492188 143.441406 104.070312 C 143.496094 104.648438 143.292969 105.21875 142.882812 105.632812 C 140.46875 108.078125 138.359375 110.800781 136.613281 113.722656 C 135.722656 115.214844 134.914062 116.777344 134.210938 118.375 C 133.882812 119.113281 133.164062 119.546875 132.410156 119.546875"/><path fill="#511241" d="M 157.476562 88.332031 C 157.347656 88.332031 157.21875 88.320312 157.089844 88.292969 C 149.800781 86.835938 142.648438 82.503906 136.335938 78.683594 C 129.320312 74.4375 122.699219 70.429688 119.511719 72.902344 C 119.128906 73.199219 118.933594 73.574219 118.878906 74.121094 C 118.605469 76.925781 122.066406 82.074219 124.3125 84.65625 C 125.023438 85.476562 124.9375 86.71875 124.117188 87.433594 C 123.300781 88.144531 122.058594 88.058594 121.34375 87.238281 C 120.636719 86.425781 114.4375 79.136719 114.964844 73.742188 C 115.121094 72.121094 115.859375 70.753906 117.101562 69.792969 C 122.421875 65.660156 129.8125 70.136719 138.371094 75.316406 C 144.203125 78.847656 150.789062 82.832031 157.195312 84.292969 C 159.9375 82.910156 170.808594 78 190.269531 75.957031 C 191.351562 75.839844 192.316406 76.625 192.429688 77.707031 C 192.542969 78.785156 191.761719 79.753906 190.679688 79.867188 C 169.304688 82.113281 158.546875 88.019531 158.441406 88.078125 C 158.144531 88.246094 157.808594 88.332031 157.476562 88.332031"/><path fill="#511241" d="M 123.78125 102.355469 C 123.277344 102.355469 122.773438 102.164062 122.386719 101.777344 C 116.367188 95.71875 115.449219 90.28125 115.738281 86.785156 C 116.058594 82.925781 117.839844 80.566406 118.042969 80.308594 C 118.714844 79.453125 119.953125 79.308594 120.804688 79.980469 C 121.65625 80.648438 121.804688 81.878906 121.140625 82.730469 C 120.90625 83.042969 116.007812 89.78125 125.179688 99 C 125.941406 99.773438 125.941406 101.019531 125.167969 101.785156 C 124.785156 102.164062 124.285156 102.355469 123.78125 102.355469"/><path fill="#511241" d="M 125.851562 157.394531 C 124.878906 157.394531 124.035156 156.671875 123.90625 155.683594 C 123.058594 149.25 123.15625 142.746094 124.195312 136.347656 C 125.21875 130.050781 127.136719 123.957031 129.902344 118.207031 C 114.027344 106.480469 118.464844 96.019531 118.667969 95.570312 C 119.113281 94.578125 120.273438 94.132812 121.265625 94.578125 C 122.25 95.019531 122.695312 96.171875 122.265625 97.15625 C 122.105469 97.550781 118.921875 105.855469 133.527344 115.964844 C 134.339844 116.523438 134.609375 117.601562 134.160156 118.480469 C 131.171875 124.304688 129.128906 130.527344 128.078125 136.980469 C 127.101562 142.996094 127.007812 149.117188 127.804688 155.167969 C 127.945312 156.246094 127.1875 157.234375 126.113281 157.375 C 126.023438 157.386719 125.9375 157.394531 125.851562 157.394531"/><path fill="#511241" d="M 269.789062 142.265625 C 268.777344 142.265625 267.914062 141.480469 267.832031 140.453125 C 267.351562 134.367188 265.992188 128.398438 263.785156 122.71875 C 261.417969 116.625 258.125 110.960938 253.988281 105.882812 C 253.367188 105.117188 253.40625 104.011719 254.085938 103.292969 C 266.308594 90.332031 261.402344 82.863281 261.1875 82.550781 C 260.546875 81.675781 260.746094 80.457031 261.625 79.8125 C 262.503906 79.171875 263.738281 79.375 264.378906 80.253906 C 264.671875 80.652344 271.191406 89.964844 258.097656 104.730469 C 261.996094 109.78125 265.140625 115.34375 267.449219 121.292969 C 269.796875 127.332031 271.246094 133.675781 271.753906 140.144531 C 271.839844 141.226562 271.03125 142.171875 269.949219 142.257812 C 269.894531 142.261719 269.84375 142.265625 269.789062 142.265625"/><path fill="#511241" d="M 129.601562 177.878906 C 128.828125 177.878906 127.441406 177.765625 125.980469 177.121094 C 123.984375 176.238281 121.507812 174.207031 121.015625 169.542969 C 120.328125 162.976562 123.910156 154.953125 124.0625 154.617188 C 124.507812 153.628906 125.675781 153.1875 126.664062 153.632812 C 127.65625 154.082031 128.09375 155.246094 127.648438 156.238281 C 127.589844 156.363281 124.355469 163.65625 124.929688 169.132812 C 125.445312 174.058594 129.09375 173.996094 129.820312 173.933594 C 130.902344 173.820312 131.859375 174.605469 131.972656 175.6875 C 132.089844 176.765625 131.296875 177.738281 130.214844 177.851562 C 130.152344 177.855469 129.933594 177.878906 129.601562 177.878906"/><path fill="#511241" d="M 155.585938 195.789062 C 150.984375 195.789062 147.535156 194.21875 145.242188 192.652344 C 143.089844 191.179688 141.640625 189.507812 140.84375 188.4375 C 138.164062 188.628906 132.148438 188.582031 129.304688 184.699219 C 125.082031 178.9375 130.171875 169.964844 130.390625 169.585938 C 130.933594 168.644531 132.136719 168.320312 133.078125 168.863281 C 134.015625 169.40625 134.339844 170.609375 133.800781 171.550781 C 132.667969 173.519531 130.230469 179.308594 132.476562 182.375 C 134.273438 184.824219 139.757812 184.664062 141.535156 184.414062 C 142.339844 184.300781 143.125 184.691406 143.523438 185.394531 C 143.726562 185.746094 148.777344 194.203125 160.339844 191.214844 C 161.390625 190.945312 162.464844 191.578125 162.738281 192.628906 C 163.007812 193.683594 162.375 194.753906 161.324219 195.027344 C 159.246094 195.5625 157.335938 195.789062 155.585938 195.789062"/><path fill="#511241" d="M 224.507812 81.285156 C 224.308594 81.285156 224.109375 81.257812 223.917969 81.195312 C 223.804688 81.160156 212.054688 77.621094 190.679688 79.867188 C 189.597656 79.980469 188.632812 79.195312 188.519531 78.117188 C 188.402344 77.035156 189.1875 76.070312 190.269531 75.957031 C 209.730469 73.910156 221.382812 76.453125 224.351562 77.234375 C 230.3125 74.472656 235.925781 69.207031 240.898438 64.539062 C 248.191406 57.691406 254.492188 51.777344 260.554688 54.710938 C 261.964844 55.398438 262.976562 56.578125 263.464844 58.132812 C 265.101562 63.300781 260.554688 71.71875 260.03125 72.664062 C 259.503906 73.613281 258.308594 73.953125 257.355469 73.425781 C 256.40625 72.898438 256.066406 71.703125 256.59375 70.753906 C 258.25 67.753906 260.566406 62.003906 259.714844 59.316406 C 259.546875 58.792969 259.28125 58.464844 258.84375 58.253906 C 255.210938 56.496094 249.566406 61.796875 243.589844 67.410156 C 238.207031 72.457031 232.113281 78.183594 225.285156 81.125 C 225.035156 81.234375 224.769531 81.285156 224.507812 81.285156"/><path fill="#511241" d="M 260.375 87.996094 C 260.011719 87.996094 259.640625 87.894531 259.3125 87.683594 C 258.402344 87.09375 258.136719 85.875 258.726562 84.964844 C 265.792969 74.011719 259.558594 68.4375 259.289062 68.207031 C 258.453125 67.511719 258.347656 66.277344 259.042969 65.445312 C 259.738281 64.609375 260.984375 64.5 261.816406 65.191406 C 262.070312 65.402344 264.304688 67.339844 265.421875 71.050781 C 266.433594 74.410156 266.664062 79.917969 262.03125 87.097656 C 261.65625 87.679688 261.023438 87.996094 260.375 87.996094"/><path fill="#511241" d="M 269.984375 163.148438 C 268.988281 163.148438 268.136719 162.394531 268.03125 161.382812 C 267.914062 160.304688 268.699219 159.335938 269.78125 159.222656 C 270.484375 159.132812 274.066406 158.433594 273.550781 153.507812 C 272.96875 147.992188 268.257812 141.527344 268.210938 141.460938 C 267.566406 140.585938 267.753906 139.355469 268.628906 138.710938 C 269.503906 138.066406 270.734375 138.253906 271.378906 139.132812 C 271.597656 139.429688 276.773438 146.53125 277.460938 153.097656 C 277.953125 157.761719 275.949219 160.265625 274.183594 161.542969 C 272.335938 162.878906 270.40625 163.113281 270.191406 163.136719 C 270.121094 163.144531 270.050781 163.148438 269.984375 163.148438"/><path fill="#511241" d="M 244.453125 186.429688 C 244.089844 186.429688 243.714844 186.421875 243.332031 186.40625 C 242.246094 186.359375 241.40625 185.441406 241.453125 184.355469 C 241.5 183.269531 242.421875 182.433594 243.503906 182.476562 C 255.445312 182.992188 258.613281 173.671875 258.746094 173.273438 C 258.996094 172.511719 259.683594 171.96875 260.488281 171.910156 C 262.273438 171.785156 267.671875 170.804688 268.921875 168.03125 C 270.480469 164.566406 266.890625 159.414062 265.375 157.71875 C 264.652344 156.910156 264.71875 155.667969 265.527344 154.941406 C 266.335938 154.214844 267.574219 154.28125 268.300781 155.089844 C 268.59375 155.414062 275.4375 163.132812 272.507812 169.644531 C 270.53125 174.035156 264.65625 175.335938 261.996094 175.703125 C 261.4375 176.914062 260.371094 178.851562 258.570312 180.738281 C 256.054688 183.375 251.597656 186.429688 244.453125 186.429688"/><path fill="#511241" d="M 197.738281 147.042969 C 202.992188 146.730469 202.910156 154.601562 198.867188 157.789062 C 194.25 155.511719 192.535156 147.828125 197.738281 147.042969"/><path fill="#693B4E" d="M 197.871094 150.070312 C 199.988281 149.777344 201.425781 151.152344 201.589844 151.316406 C 201.78125 149.808594 201.207031 148.363281 200.074219 147.601562 C 199.078125 146.925781 197.984375 147.015625 197.738281 147.042969 C 197.578125 147.058594 196.457031 147.195312 195.574219 148.074219 C 194.5625 149.074219 194.242188 150.660156 194.679688 152.183594 C 194.808594 151.972656 195.816406 150.355469 197.871094 150.070312"/><path fill="#511241" d="M 114.554688 299.867188 C 113.613281 299.867188 112.78125 299.191406 112.617188 298.230469 C 98.609375 216.652344 122.136719 189.277344 129.679688 182.828125 C 130.503906 182.121094 131.746094 182.21875 132.453125 183.046875 C 133.15625 183.871094 133.0625 185.113281 132.234375 185.820312 C 129.226562 188.390625 121.699219 196.242188 116.800781 213.535156 C 110.714844 235.039062 110.613281 263.308594 116.492188 297.566406 C 116.679688 298.636719 115.960938 299.652344 114.890625 299.835938 C 114.777344 299.855469 114.664062 299.867188 114.554688 299.867188"/><path fill="#511241" d="M 114.554688 299.867188 C 113.597656 299.867188 112.761719 299.167969 112.613281 298.199219 C 112.449219 297.15625 113.144531 296.167969 114.179688 295.96875 C 134.1875 292.082031 142.03125 280.09375 142.109375 279.972656 C 142.511719 279.34375 143.238281 278.988281 143.984375 279.070312 C 155.023438 280.277344 165.09375 258.738281 168.042969 250.335938 C 168.253906 249.738281 168.738281 249.277344 169.347656 249.097656 C 178.796875 246.339844 179.605469 231.421875 178.617188 219.394531 C 177.492188 205.738281 173.804688 192.601562 173.765625 192.472656 C 173.472656 191.425781 174.078125 190.339844 175.125 190.042969 C 176.167969 189.746094 177.253906 190.355469 177.550781 191.398438 C 177.707031 191.949219 181.371094 204.988281 182.53125 219.023438 C 183.222656 227.375 182.863281 234.328125 181.46875 239.695312 C 179.71875 246.417969 176.339844 250.738281 171.417969 252.554688 C 170.539062 254.894531 167.980469 261.289062 164.152344 267.640625 C 157.972656 277.878906 151.515625 283.058594 144.9375 283.058594 C 144.871094 283.058594 144.808594 283.058594 144.746094 283.054688 C 143.21875 285.082031 139.117188 289.820312 131.601562 293.941406 L 151.566406 291.625 C 152.03125 291.570312 152.496094 291.683594 152.886719 291.941406 C 155.316406 293.5625 157.5 294.175781 159.378906 293.761719 C 161.65625 293.261719 162.851562 291.351562 162.863281 291.332031 C 163.144531 290.851562 163.613281 290.523438 164.15625 290.410156 C 164.699219 290.296875 165.261719 290.425781 165.710938 290.757812 C 168.207031 292.582031 170.417969 293.347656 172.109375 292.972656 C 173.75 292.609375 174.507812 291.269531 174.539062 291.210938 C 174.800781 290.710938 175.257812 290.355469 175.804688 290.21875 C 176.355469 290.082031 176.929688 290.199219 177.394531 290.519531 C 183.980469 295.078125 189.910156 289.699219 190.160156 289.464844 C 190.941406 288.738281 192.164062 288.765625 192.910156 289.53125 C 194.902344 291.578125 196.90625 292.582031 198.859375 292.519531 C 201.71875 292.421875 203.761719 290.070312 203.78125 290.046875 C 204.125 289.644531 204.617188 289.394531 205.144531 289.355469 C 205.671875 289.320312 206.195312 289.492188 206.589844 289.84375 C 212.472656 295.050781 219.445312 289.960938 219.738281 289.742188 C 219.761719 289.722656 219.792969 289.703125 219.816406 289.6875 C 219.875 289.644531 225.820312 285.558594 232.570312 277.402344 C 238.773438 269.90625 246.953125 257.324219 250.679688 239.976562 C 254.394531 222.695312 251.730469 208.824219 248.84375 200.234375 C 245.707031 190.898438 241.628906 185.585938 241.589844 185.53125 C 240.921875 184.675781 241.078125 183.4375 241.933594 182.773438 C 242.789062 182.105469 244.023438 182.253906 244.691406 183.113281 C 244.871094 183.34375 249.152344 188.890625 252.511719 198.800781 C 255.597656 207.894531 258.449219 222.5625 254.527344 240.804688 C 250.617188 258.996094 242.023438 272.179688 235.5 280.035156 C 228.640625 288.292969 222.683594 292.488281 222.070312 292.914062 C 218.921875 295.269531 211.726562 298.203125 205.40625 293.898438 C 204.078125 294.980469 201.859375 296.339844 199.042969 296.449219 C 196.386719 296.546875 193.832031 295.558594 191.402344 293.5 C 188.199219 295.738281 182.566406 297.789062 176.75 294.722656 C 175.945312 295.527344 174.742188 296.394531 173.0625 296.792969 C 170.597656 297.371094 167.867188 296.757812 164.933594 294.96875 C 163.953125 295.949219 162.417969 297.101562 160.304688 297.585938 C 157.503906 298.230469 154.484375 297.5625 151.324219 295.613281 L 114.78125 299.851562 C 114.707031 299.859375 114.628906 299.867188 114.554688 299.867188"/><path fill="#511241" d="M 223.394531 291.386719 C 222.671875 291.386719 221.972656 290.984375 221.628906 290.292969 C 221.148438 289.320312 221.546875 288.140625 222.519531 287.65625 C 222.605469 287.613281 231.34375 283.207031 240.941406 273.664062 C 249.757812 264.894531 261.132812 249.851562 265.277344 227.988281 C 270.097656 202.570312 259.585938 187.203125 254.84375 181.777344 C 254.128906 180.957031 254.210938 179.714844 255.03125 179 C 255.847656 178.285156 257.089844 178.367188 257.804688 179.1875 C 262.929688 185.046875 274.285156 201.605469 269.144531 228.71875 C 264.800781 251.644531 252.855469 267.390625 243.601562 276.5625 C 233.566406 286.511719 224.640625 290.996094 224.265625 291.179688 C 223.984375 291.320312 223.6875 291.386719 223.394531 291.386719"/><path fill="#511241" d="M 123.8125 264.34375 C 122.023438 264.34375 120.269531 263.789062 118.578125 262.683594 C 118.125 262.386719 117.996094 261.777344 118.292969 261.324219 C 118.589844 260.867188 119.199219 260.742188 119.65625 261.035156 C 121.664062 262.347656 123.671875 262.695312 125.792969 262.089844 C 132.621094 260.148438 137.851562 249.117188 137.90625 249.007812 C 138.101562 248.585938 138.566406 248.359375 139.019531 248.464844 C 144.867188 249.820312 150.558594 239.097656 152.253906 234.851562 C 152.433594 234.40625 152.914062 234.152344 153.382812 234.257812 C 155.539062 234.738281 157.472656 234.421875 159.128906 233.320312 C 163.308594 230.535156 164.570312 223.722656 164.582031 223.65625 C 164.679688 223.117188 165.191406 222.765625 165.726562 222.859375 C 166.257812 222.957031 166.613281 223.464844 166.519531 224 C 166.460938 224.316406 165.089844 231.710938 160.21875 234.957031 C 158.3125 236.226562 156.144531 236.683594 153.765625 236.332031 C 152.429688 239.390625 147.074219 250.554688 140.078125 250.554688 C 139.839844 250.554688 139.597656 250.542969 139.355469 250.515625 C 138.039062 253.089844 133.039062 262.074219 126.332031 263.984375 C 125.488281 264.222656 124.644531 264.34375 123.8125 264.34375"/><path fill="#511241" d="M 127.773438 232.042969 C 126.332031 232.042969 124.960938 231.5625 123.675781 230.597656 C 123.242188 230.273438 123.152344 229.65625 123.480469 229.21875 C 123.804688 228.785156 124.421875 228.699219 124.855469 229.023438 C 126.117188 229.972656 127.425781 230.273438 128.859375 229.953125 C 134.121094 228.765625 138.890625 219.769531 138.941406 219.679688 C 139.152344 219.273438 139.613281 219.070312 140.058594 219.183594 C 146.394531 220.824219 151.378906 208.34375 151.429688 208.21875 C 151.628906 207.710938 152.199219 207.464844 152.707031 207.664062 C 153.210938 207.859375 153.460938 208.429688 153.261719 208.9375 C 153.042969 209.5 147.933594 222.304688 140.324219 221.238281 C 139.050781 223.472656 134.585938 230.671875 129.292969 231.871094 C 128.777344 231.988281 128.273438 232.042969 127.773438 232.042969"/><path fill="#511241" d="M 185.851562 225.398438 C 183.9375 225.398438 182.390625 224.84375 181.261719 223.75 C 179.277344 221.828125 179.382812 218.976562 179.390625 218.855469 C 179.414062 218.3125 179.859375 217.890625 180.417969 217.917969 C 180.960938 217.941406 181.378906 218.402344 181.355469 218.945312 C 181.355469 218.960938 181.292969 221.054688 182.636719 222.347656 C 183.511719 223.183594 184.832031 223.539062 186.558594 223.402344 C 190.21875 223.113281 194.519531 219.628906 195.308594 212.675781 C 195.367188 212.175781 195.785156 211.800781 196.285156 211.800781 C 196.289062 211.800781 196.292969 211.800781 196.296875 211.800781 C 196.800781 211.808594 197.21875 212.191406 197.265625 212.691406 C 197.601562 216.265625 198.800781 218.976562 200.738281 220.53125 C 202.320312 221.800781 204.339844 222.289062 206.734375 221.988281 C 209.75 221.609375 215.640625 216.804688 215.617188 211.898438 C 215.613281 211.371094 216.027344 210.9375 216.554688 210.910156 C 217.089844 210.886719 217.535156 211.28125 217.578125 211.808594 C 218.082031 217.421875 221.484375 220.746094 226.699219 220.746094 C 226.78125 220.746094 226.863281 220.746094 226.945312 220.742188 C 233.507812 220.613281 235.261719 209.980469 235.277344 209.871094 C 235.351562 209.402344 235.746094 209.054688 236.222656 209.039062 C 236.691406 209.035156 237.113281 209.355469 237.210938 209.820312 C 238.53125 216.046875 241.847656 219.3125 246.554688 219.023438 C 251.425781 218.722656 252.621094 211.472656 252.632812 211.398438 C 252.714844 210.863281 253.214844 210.496094 253.753906 210.578125 C 254.289062 210.664062 254.660156 211.164062 254.574219 211.699219 C 254.519531 212.0625 253.128906 220.589844 246.675781 220.988281 C 241.964844 221.28125 238.316406 218.664062 236.328125 213.707031 C 235.101562 217.378906 232.414062 222.601562 226.984375 222.710938 C 221.996094 222.8125 218.257812 220.34375 216.558594 216.066406 C 214.5625 220.191406 210.085938 223.550781 206.980469 223.9375 C 204.078125 224.304688 201.492188 223.65625 199.507812 222.066406 C 198.070312 220.914062 196.96875 219.285156 196.238281 217.253906 C 194.296875 222.433594 190.265625 225.082031 186.714844 225.363281 C 186.417969 225.386719 186.132812 225.398438 185.851562 225.398438"/><path fill="#511241" d="M 168.019531 310.402344 C 161.324219 310.402344 159.234375 303.496094 159.0625 299.84375 C 159.011719 298.757812 159.855469 297.839844 160.9375 297.789062 C 162.03125 297.734375 162.941406 298.574219 162.992188 299.65625 C 163.007812 299.953125 163.40625 306.464844 168.019531 306.464844 C 169.105469 306.464844 169.988281 307.347656 169.988281 308.433594 C 169.988281 309.519531 169.105469 310.402344 168.019531 310.402344"/><path fill="#511241" d="M 164.523438 309.335938 C 157.527344 309.335938 152.789062 307.507812 150.441406 303.894531 C 147.28125 299.035156 149.882812 293.035156 149.996094 292.78125 C 150.4375 291.785156 151.597656 291.339844 152.589844 291.777344 C 153.582031 292.21875 154.03125 293.378906 153.59375 294.367188 C 153.5625 294.441406 151.753906 298.722656 153.75 301.765625 C 155.3125 304.144531 159.035156 305.402344 164.523438 305.402344 C 165.613281 305.402344 166.492188 306.285156 166.492188 307.371094 C 166.492188 308.457031 165.613281 309.335938 164.523438 309.335938"/><path fill="#511241" d="M 168.019531 310.402344 C 166.933594 310.402344 166.054688 309.519531 166.054688 308.433594 C 166.054688 307.347656 166.933594 306.464844 168.019531 306.464844 C 172.640625 306.464844 173.035156 299.933594 173.046875 299.65625 C 173.105469 298.574219 174.03125 297.742188 175.109375 297.789062 C 176.195312 297.84375 177.027344 298.761719 176.976562 299.84375 C 176.808594 303.496094 174.71875 310.402344 168.019531 310.402344"/><path fill="#511241" d="M 171.515625 309.335938 C 170.433594 309.335938 169.550781 308.457031 169.550781 307.371094 C 169.550781 306.285156 170.433594 305.402344 171.515625 305.402344 C 176.875 305.402344 180.5625 304.203125 182.179688 301.933594 C 183.988281 299.390625 182.972656 295.839844 182.613281 294.8125 C 182.261719 293.785156 182.804688 292.664062 183.832031 292.3125 C 184.859375 291.957031 185.976562 292.5 186.332031 293.527344 C 186.988281 295.421875 188.207031 300.25 185.382812 304.214844 C 182.960938 307.613281 178.296875 309.335938 171.515625 309.335938"/><path fill="#511241" d="M 210.570312 309.667969 C 203.875 309.667969 201.785156 302.761719 201.613281 299.109375 C 201.566406 298.023438 202.402344 297.105469 203.488281 297.054688 C 204.578125 297 205.492188 297.839844 205.546875 298.925781 C 205.558594 299.21875 205.957031 305.734375 210.570312 305.734375 C 211.660156 305.734375 212.539062 306.613281 212.539062 307.699219 C 212.539062 308.785156 211.660156 309.667969 210.570312 309.667969"/><path fill="#511241" d="M 207.078125 308.601562 C 200.222656 308.601562 195.53125 306.84375 193.132812 303.371094 C 190.207031 299.128906 191.824219 293.929688 192.390625 292.4375 C 192.777344 291.421875 193.910156 290.910156 194.925781 291.292969 C 195.941406 291.679688 196.453125 292.816406 196.070312 293.832031 C 195.789062 294.570312 194.484375 298.402344 196.371094 301.132812 C 197.96875 303.445312 201.671875 304.667969 207.078125 304.667969 C 208.164062 304.667969 209.042969 305.550781 209.042969 306.636719 C 209.042969 307.722656 208.164062 308.601562 207.078125 308.601562"/><path fill="#511241" d="M 210.570312 309.667969 C 209.488281 309.667969 208.605469 308.785156 208.605469 307.699219 C 208.605469 306.613281 209.488281 305.734375 210.570312 305.734375 C 215.230469 305.734375 215.597656 298.996094 215.601562 298.929688 C 215.652344 297.84375 216.574219 297 217.65625 297.054688 C 218.742188 297.105469 219.578125 298.023438 219.527344 299.109375 C 219.359375 302.761719 217.269531 309.667969 210.570312 309.667969"/><path fill="#511241" d="M 215.894531 308.726562 C 215.203125 308.726562 214.503906 308.679688 213.800781 308.585938 C 212.726562 308.4375 211.972656 307.445312 212.121094 306.367188 C 212.269531 305.292969 213.265625 304.539062 214.335938 304.6875 C 218.390625 305.242188 222.167969 303.621094 223.734375 300.644531 C 223.917969 300.300781 225.46875 297.195312 223.992188 294.21875 C 223.347656 292.925781 222.351562 292.097656 221.632812 291.632812 C 220.71875 291.042969 220.457031 289.828125 221.046875 288.914062 C 221.636719 288 222.851562 287.738281 223.765625 288.328125 C 225.390625 289.378906 226.6875 290.808594 227.511719 292.464844 C 229.816406 297.097656 227.667969 301.621094 227.214844 302.480469 C 225.167969 306.363281 220.773438 308.726562 215.894531 308.726562"/><path fill="#511241" d="M 320.964844 306.0625 C 320.839844 306.0625 320.714844 306.050781 320.589844 306.023438 C 320.074219 305.925781 268.777344 296.085938 225.8125 292.902344 C 224.730469 292.824219 223.917969 291.878906 224 290.796875 C 224.078125 289.714844 225.015625 288.894531 226.105469 288.980469 C 269.304688 292.179688 320.820312 302.0625 321.335938 302.160156 C 322.402344 302.367188 323.101562 303.398438 322.894531 304.464844 C 322.714844 305.40625 321.890625 306.0625 320.964844 306.0625"/><g clip-path="url(#a)"><path fill="#511241" d="M 108.195312 310.039062 C 101.773438 310.039062 92.488281 309.679688 81.519531 307.46875 C 75.175781 306.1875 69.15625 304.28125 57.167969 300.484375 C 54.363281 299.59375 51.921875 298.792969 49.5625 298.019531 C 43.15625 295.914062 38.097656 294.253906 30.425781 292.394531 C 26.59375 291.464844 22.707031 290.628906 18.875 289.90625 C 17.953125 289.734375 17.28125 288.929688 17.273438 287.988281 C 17.265625 287.046875 17.925781 286.234375 18.847656 286.046875 C 23.917969 285.019531 29.085938 284.476562 34.214844 284.4375 C 34.28125 284.4375 34.351562 284.4375 34.417969 284.4375 C 41.394531 284.4375 51.429688 287.160156 62.050781 290.042969 C 66.433594 291.230469 70.964844 292.460938 75.480469 293.558594 C 79.070312 294.429688 82.738281 295.238281 86.425781 295.96875 C 84.363281 291.710938 81.9375 287.640625 79.1875 283.824219 C 73.09375 275.375 65.464844 268.191406 56.511719 262.484375 C 55.671875 261.945312 55.363281 260.863281 55.800781 259.964844 C 56.238281 259.066406 57.277344 258.636719 58.21875 258.96875 C 68.109375 262.429688 82.09375 269.546875 92.542969 283.789062 C 95.457031 287.757812 97.9375 292.078125 99.929688 296.648438 L 114.460938 295.933594 C 115.546875 295.878906 116.46875 296.714844 116.519531 297.800781 C 116.574219 298.886719 115.738281 299.808594 114.652344 299.863281 L 98.75 300.644531 C 97.925781 300.683594 97.152344 300.199219 96.835938 299.429688 C 94.878906 294.675781 92.367188 290.195312 89.371094 286.117188 C 84.476562 279.441406 78.746094 274.425781 73.070312 270.664062 C 76.46875 274.015625 79.578125 277.640625 82.375 281.523438 C 86.023438 286.582031 89.128906 292.070312 91.605469 297.839844 C 91.890625 298.503906 91.789062 299.273438 91.335938 299.84375 C 90.882812 300.410156 90.15625 300.679688 89.441406 300.550781 C 84.429688 299.632812 79.421875 298.566406 74.554688 297.382812 C 69.984375 296.269531 65.425781 295.035156 61.019531 293.839844 C 50.660156 291.027344 40.867188 288.371094 34.421875 288.371094 C 34.363281 288.371094 34.304688 288.371094 34.246094 288.375 C 33.144531 288.382812 32.042969 288.414062 30.941406 288.46875 C 31.078125 288.503906 31.214844 288.535156 31.351562 288.570312 C 39.175781 290.464844 44.558594 292.234375 50.789062 294.28125 C 53.140625 295.050781 55.570312 295.851562 58.355469 296.734375 C 70.210938 300.488281 76.160156 302.371094 82.296875 303.609375 C 95.90625 306.355469 106.898438 306.160156 112.808594 306.054688 C 126.703125 305.808594 138.902344 303.71875 147.808594 302.195312 C 149.460938 301.910156 150.769531 301.671875 151.632812 301.515625 L 152.125 301.425781 C 153.195312 301.230469 154.21875 301.9375 154.414062 303.007812 C 154.609375 304.078125 153.898438 305.101562 152.832031 305.292969 L 152.34375 305.382812 C 151.46875 305.542969 150.148438 305.785156 148.476562 306.070312 C 139.441406 307.617188 127.074219 309.734375 112.878906 309.988281 C 111.558594 310.011719 109.988281 310.039062 108.195312 310.039062"/></g><path fill="#511241" d="M 193.769531 302.230469 C 193.757812 302.230469 193.742188 302.230469 193.726562 302.230469 C 190.773438 302.164062 187.851562 302.15625 185.039062 302.195312 C 185.027344 302.195312 185.019531 302.195312 185.007812 302.195312 C 183.933594 302.195312 183.058594 301.335938 183.042969 300.257812 C 183.027344 299.171875 183.894531 298.277344 184.980469 298.261719 C 187.839844 298.21875 190.8125 298.230469 193.8125 298.296875 C 194.898438 298.320312 195.761719 299.21875 195.734375 300.308594 C 195.714844 301.378906 194.835938 302.230469 193.769531 302.230469"/><path fill="#511241" d="M 247.742188 333.269531 C 247.09375 333.269531 246.472656 332.945312 246.105469 332.386719 C 245.660156 331.710938 245.667969 330.832031 246.132812 330.167969 C 249.273438 325.703125 252.183594 321.007812 254.785156 316.21875 C 256.175781 313.664062 257.5 311.039062 258.738281 308.390625 C 251.550781 307.355469 244.277344 306.425781 237.078125 305.617188 C 233.417969 305.210938 229.695312 304.824219 226.015625 304.46875 C 224.933594 304.367188 224.140625 303.40625 224.246094 302.324219 C 224.347656 301.242188 225.308594 300.453125 226.390625 300.554688 C 230.089844 300.910156 233.835938 301.296875 237.515625 301.707031 C 245.625 302.617188 253.832031 303.683594 261.902344 304.875 C 262.511719 304.964844 263.042969 305.335938 263.339844 305.875 C 263.636719 306.414062 263.660156 307.058594 263.414062 307.621094 C 261.835938 311.164062 260.09375 314.691406 258.242188 318.097656 C 256.429688 321.433594 254.472656 324.722656 252.398438 327.921875 C 255.480469 326.804688 258.394531 325.296875 261.097656 323.414062 C 267.878906 318.699219 271.707031 312.734375 273.722656 308.558594 C 274.128906 307.714844 275.070312 307.273438 275.980469 307.507812 L 311.511719 316.574219 C 312.566406 316.84375 313.203125 317.914062 312.933594 318.96875 C 312.664062 320.019531 311.59375 320.65625 310.542969 320.386719 L 276.535156 311.710938 C 274.164062 316.175781 270.074219 321.964844 263.34375 326.644531 C 258.769531 329.828125 253.660156 332.039062 248.15625 333.222656 C 248.019531 333.253906 247.882812 333.269531 247.742188 333.269531"/><path fill="#511241" d="M 137.746094 333.554688 C 121.0625 333.554688 115.164062 309.273438 114.921875 308.242188 C 114.671875 307.183594 115.328125 306.125 116.386719 305.875 C 117.445312 305.628906 118.503906 306.285156 118.75 307.339844 C 118.820312 307.632812 124.195312 329.621094 137.746094 329.621094 C 138.832031 329.621094 139.714844 330.503906 139.714844 331.589844 C 139.714844 332.675781 138.832031 333.554688 137.746094 333.554688"/><g clip-path="url(#b)"><path fill="#511241" d="M 146.6875 337.53125 C 146.675781 337.53125 146.664062 337.53125 146.652344 337.53125 C 140.535156 337.515625 135.855469 334.144531 133.121094 327.789062 C 131.167969 323.25 130.914062 318.773438 130.902344 318.585938 C 130.84375 317.5 131.679688 316.574219 132.761719 316.515625 C 133.847656 316.464844 134.773438 317.292969 134.832031 318.375 C 134.832031 318.414062 135.070312 322.421875 136.769531 326.316406 C 138.871094 331.136719 142.199219 333.585938 146.664062 333.597656 C 146.671875 333.597656 146.679688 333.597656 146.6875 333.597656 C 154.765625 333.597656 162.851562 322.007812 165.292969 317.539062 C 165.8125 316.585938 167.007812 316.234375 167.960938 316.753906 C 168.914062 317.273438 169.265625 318.46875 168.746094 319.421875 C 168.34375 320.164062 158.730469 337.53125 146.6875 337.53125"/></g><path fill="#511241" d="M 155.296875 335.1875 C 154.808594 335.1875 154.332031 335.15625 153.875 335.097656 C 152.796875 334.964844 152.03125 333.980469 152.167969 332.902344 C 152.304688 331.824219 153.285156 331.058594 154.363281 331.195312 C 165.085938 332.539062 187.421875 311.125 195.117188 302.761719 C 195.851562 301.960938 197.097656 301.910156 197.898438 302.644531 C 198.695312 303.382812 198.75 304.625 198.011719 305.425781 C 197.941406 305.503906 190.738281 313.308594 181.894531 320.785156 C 170.582031 330.351562 161.648438 335.1875 155.296875 335.1875"/><path fill="#815A69" d="M 202.636719 263.359375 C 200.523438 268.347656 199.015625 271.859375 198.035156 274.136719 C 196.949219 276.648438 196.003906 278.8125 196.960938 279.992188 C 197.660156 280.851562 199.226562 280.996094 200.175781 280.640625 C 204.011719 279.207031 203.085938 267.667969 202.636719 263.359375"/><path fill="#815A69" d="M 227.125 265.117188 C 224.539062 269.875 222.695312 273.222656 221.496094 275.394531 C 220.167969 277.789062 219.019531 279.851562 219.855469 281.113281 C 220.464844 282.042969 222.011719 282.335938 222.996094 282.074219 C 226.949219 281.019531 227.152344 269.449219 227.125 265.117188"/><path fill="#815A69" d="M 219.375 243.21875 C 217.449219 248.28125 216.070312 251.84375 215.167969 254.15625 C 214.175781 256.707031 213.3125 258.90625 214.308594 260.046875 C 215.039062 260.882812 216.609375 260.96875 217.546875 260.578125 C 221.324219 259.003906 219.980469 247.507812 219.375 243.21875"/><path fill="#815A69" d="M 178.996094 267.398438 C 176.160156 272.011719 174.140625 275.253906 172.824219 277.359375 C 171.378906 279.679688 170.117188 281.679688 170.882812 282.984375 C 171.449219 283.945312 172.976562 284.320312 173.96875 284.113281 C 177.972656 283.269531 178.792969 271.722656 178.996094 267.398438"/><path fill="#815A69" d="M 200.902344 232.3125 C 198.996094 237.382812 197.632812 240.953125 196.742188 243.269531 C 195.761719 245.824219 194.910156 248.023438 195.910156 249.160156 C 196.644531 249.996094 198.21875 250.074219 199.152344 249.679688 C 202.921875 248.089844 201.527344 236.597656 200.902344 232.3125"/><path fill="#511241" d="M 186.070312 192.753906 C 182.621094 192.753906 180.136719 191.128906 179.160156 190.363281 C 178.730469 190.03125 178.65625 189.414062 178.988281 188.984375 C 179.324219 188.558594 179.941406 188.480469 180.371094 188.816406 C 181.078125 189.367188 183.652344 191.136719 187.148438 190.722656 C 190.847656 190.285156 192.964844 187.75 193.523438 186.984375 C 193.699219 186.746094 193.96875 186.597656 194.261719 186.582031 C 194.558594 186.5625 194.84375 186.679688 195.042969 186.898438 C 197.070312 189.105469 200.058594 190 202.652344 189.183594 C 205.054688 188.429688 206.300781 186.46875 206.726562 185.664062 C 206.867188 185.390625 207.132812 185.203125 207.4375 185.152344 C 207.742188 185.101562 208.050781 185.195312 208.273438 185.410156 C 208.996094 186.09375 211.664062 188.308594 215.570312 188.09375 C 219.789062 187.855469 222.296875 184.914062 222.757812 184.328125 C 223.082031 183.910156 223.679688 183.828125 224.109375 184.136719 C 224.730469 184.589844 228.035156 186.785156 231.917969 185.585938 C 233.996094 184.945312 235.351562 183.613281 236.121094 182.609375 C 236.453125 182.175781 237.070312 182.09375 237.5 182.425781 C 237.933594 182.757812 238.011719 183.375 237.683594 183.804688 C 236.738281 185.035156 235.070312 186.671875 232.496094 187.464844 C 228.628906 188.664062 225.253906 187.140625 223.714844 186.226562 C 222.46875 187.5625 219.769531 189.828125 215.683594 190.058594 C 212.03125 190.261719 209.285156 188.699219 207.835938 187.605469 C 207.015625 188.777344 205.546875 190.335938 203.242188 191.0625 C 200.257812 192 196.894531 191.195312 194.394531 189.011719 C 193.222656 190.292969 190.886719 192.261719 187.382812 192.675781 C 186.929688 192.730469 186.496094 192.753906 186.070312 192.753906"/><path fill="#815A69" d="M 238.007812 231.523438 C 236.332031 236.675781 235.128906 240.300781 234.34375 242.65625 C 233.480469 245.25 232.722656 247.488281 233.777344 248.578125 C 234.546875 249.378906 236.121094 249.386719 237.039062 248.949219 C 240.734375 247.191406 238.824219 235.777344 238.007812 231.523438"/><path fill="#511241" d="M 197.839844 148.023438 C 196.535156 148.234375 195.773438 148.984375 195.578125 150.253906 C 195.269531 152.210938 196.492188 155.144531 198.742188 156.589844 C 200.640625 154.710938 201.226562 151.585938 200.519531 149.734375 C 200.0625 148.53125 199.171875 147.957031 197.839844 148.023438 Z M 198.867188 158.773438 C 198.71875 158.773438 198.570312 158.738281 198.433594 158.671875 C 195.28125 157.117188 193.125 153.203125 193.632812 149.953125 C 193.964844 147.816406 195.40625 146.398438 197.589844 146.070312 C 197.621094 146.066406 197.648438 146.0625 197.679688 146.0625 C 199.890625 145.929688 201.589844 147.015625 202.359375 149.035156 C 203.53125 152.109375 202.238281 156.382812 199.476562 158.5625 C 199.300781 158.699219 199.085938 158.773438 198.867188 158.773438"/><g clip-path="url(#c)"><g clip-path="url(#d)"><g clip-path="url(#e)"><g clip-path="url(#f)"><path fill="#22222E" d="M 285.410156 75.667969 L 194.5 38.859375 L 178.597656 78.363281 C 176.265625 84.152344 194.730469 97.082031 219.832031 107.25 C 244.9375 117.414062 267.175781 120.960938 269.507812 115.171875 L 285.410156 75.667969"/></g></g></g></g><g clip-path="url(#g)"><g clip-path="url(#h)"><g clip-path="url(#i)"><g clip-path="url(#j)"><path fill="#D3D2D2" d="M 189.109375 52.253906 L 194.5 38.859375 L 189.109375 52.253906"/></g></g></g></g><g clip-path="url(#k)"><g clip-path="url(#l)"><g clip-path="url(#m)"><g clip-path="url(#n)"><path fill="#1C1B26" d="M 280.4375 88.015625 L 268.679688 85.878906 L 274.5625 71.273438 L 285.410156 75.667969 L 280.4375 88.015625 M 253.414062 83.109375 L 242.882812 81.195312 L 250.757812 61.636719 L 260.46875 65.570312 L 253.414062 83.109375 M 235.335938 79.824219 L 231.476562 79.121094 L 189.109375 52.253906 L 194.5 38.859375 L 243.792969 58.816406 L 235.335938 79.824219"/></g></g></g></g><g clip-path="url(#o)"><g clip-path="url(#p)"><g clip-path="url(#q)"><g clip-path="url(#r)"><path fill="#BC7C1A" d="M 223.03125 99.296875 C 197.925781 89.132812 179.46875 76.203125 181.796875 70.414062 L 180.316406 74.089844 C 177.984375 79.878906 196.449219 92.816406 221.550781 102.980469 C 246.65625 113.140625 268.894531 116.6875 271.226562 110.898438 L 272.707031 107.21875 C 270.378906 113.007812 248.136719 109.464844 223.03125 99.296875"/></g></g></g></g><g clip-path="url(#s)"><g clip-path="url(#t)"><g clip-path="url(#u)"><g clip-path="url(#v)"><path fill="#D3D2D2" d="M 250.753906 61.636719 L 243.792969 58.816406 L 250.757812 61.636719"/></g></g></g></g><g clip-path="url(#w)"><g clip-path="url(#x)"><g clip-path="url(#y)"><g clip-path="url(#z)"><path fill="#1C1B26" d="M 230.757812 111.320312 C 228.445312 110.53125 226.085938 109.679688 223.6875 108.761719 L 225.40625 104.496094 C 227.800781 105.414062 230.164062 106.265625 232.472656 107.054688 L 230.757812 111.320312 M 233.953125 103.371094 C 231.644531 102.585938 229.28125 101.730469 226.886719 100.8125 L 235.335938 79.824219 L 242.882812 81.195312 L 233.953125 103.371094"/></g></g></g></g><g clip-path="url(#A)"><g clip-path="url(#B)"><g clip-path="url(#C)"><g clip-path="url(#D)"><path fill="#17161E" d="M 242.882812 81.195312 L 235.335938 79.824219 L 243.792969 58.816406 L 250.753906 61.636719 L 242.882812 81.195312"/></g></g></g></g><g clip-path="url(#E)"><g clip-path="url(#F)"><g clip-path="url(#G)"><g clip-path="url(#H)"><path fill="#9C6515" d="M 232.472656 107.054688 C 230.164062 106.265625 227.800781 105.414062 225.40625 104.496094 L 226.886719 100.8125 C 229.28125 101.730469 231.644531 102.585938 233.953125 103.371094 L 232.472656 107.054688"/></g></g></g></g><g clip-path="url(#I)"><g clip-path="url(#J)"><g clip-path="url(#K)"><g clip-path="url(#L)"><path fill="#D3D2D2" d="M 274.558594 71.273438 L 260.46875 65.570312 L 260.472656 65.570312 L 274.5625 71.273438"/></g></g></g></g><g clip-path="url(#M)"><g clip-path="url(#N)"><g clip-path="url(#O)"><g clip-path="url(#P)"><path fill="#1C1B26" d="M 255.921875 117.574219 C 251.601562 117.050781 246.464844 115.980469 240.804688 114.425781 L 242.519531 110.160156 C 248.183594 111.714844 253.320312 112.78125 257.640625 113.304688 L 255.921875 117.574219 M 259.121094 109.625 C 254.800781 109.101562 249.664062 108.039062 244.003906 106.480469 L 253.414062 83.109375 L 268.679688 85.878906 L 259.121094 109.625"/></g></g></g></g><g clip-path="url(#Q)"><g clip-path="url(#R)"><g clip-path="url(#S)"><g clip-path="url(#T)"><path fill="#17161E" d="M 268.679688 85.878906 L 253.414062 83.109375 L 260.472656 65.570312 L 274.558594 71.273438 L 268.679688 85.878906"/></g></g></g></g><g clip-path="url(#U)"><g clip-path="url(#V)"><g clip-path="url(#W)"><g clip-path="url(#X)"><path fill="#9C6515" d="M 257.640625 113.304688 C 253.320312 112.78125 248.183594 111.714844 242.519531 110.160156 L 244.003906 106.480469 C 249.664062 108.039062 254.800781 109.101562 259.121094 109.625 L 257.640625 113.304688"/></g></g></g></g><g clip-path="url(#Y)"><g clip-path="url(#Z)"><g clip-path="url(#aa)"><g clip-path="url(#ab)"><path fill="#A16E26" d="M 288.914062 105.851562 C 286.183594 107.179688 285.046875 110.480469 286.375 113.21875 C 286.375 113.21875 291.480469 120.28125 290.785156 122.296875 C 290.089844 124.308594 302.625 118.15625 300.683594 117.480469 C 298.742188 116.808594 296.273438 108.402344 296.273438 108.402344 C 294.945312 105.664062 291.648438 104.519531 288.914062 105.851562"/></g></g></g></g><g clip-path="url(#ac)"><g clip-path="url(#ad)"><g clip-path="url(#ae)"><g clip-path="url(#af)"><path fill="#26232F" d="M 233.09375 74.304688 L 165.390625 30.113281 L 166.855469 26.464844 L 234.5625 70.65625 L 233.09375 74.304688"/></g></g></g></g><g clip-path="url(#ag)"><g clip-path="url(#ah)"><g clip-path="url(#ai)"><g clip-path="url(#aj)"><path fill="#322F41" d="M 234.5625 70.65625 L 166.855469 26.464844 L 246.175781 41.804688 L 313.878906 85.996094 L 234.5625 70.65625"/></g></g></g></g><g clip-path="url(#ak)"><g clip-path="url(#al)"><g clip-path="url(#am)"><g clip-path="url(#an)"><path fill="#46445D" d="M 312.414062 89.644531 L 233.09375 74.304688 L 234.5625 70.65625 L 313.878906 85.996094 L 312.414062 89.644531"/></g></g></g></g><g clip-path="url(#ao)"><g clip-path="url(#ap)"><g clip-path="url(#aq)"><g clip-path="url(#ar)"><path fill="#BF8D1E" d="M 287.113281 102.785156 C 286.953125 102.71875 286.804688 102.613281 286.691406 102.472656 C 281.492188 96.035156 286.777344 85.125 288.597656 81.808594 L 240.242188 56.269531 C 239.726562 56 239.53125 55.367188 239.800781 54.855469 C 240.066406 54.339844 240.707031 54.148438 241.214844 54.414062 L 290.535156 80.457031 C 290.789062 80.59375 290.980469 80.828125 291.058594 81.109375 C 291.132812 81.390625 291.089844 81.6875 290.941406 81.933594 C 290.863281 82.0625 283.195312 94.804688 288.316406 101.152344 C 288.683594 101.601562 288.613281 102.261719 288.164062 102.625 C 287.855469 102.875 287.453125 102.917969 287.113281 102.785156"/></g></g></g></g><g clip-path="url(#as)"><g clip-path="url(#at)"><g clip-path="url(#au)"><g clip-path="url(#av)"><path fill="#BC7C1A" d="M 245.695312 57.355469 C 246.222656 56.058594 244.421875 54.101562 241.671875 52.992188 C 238.925781 51.878906 236.277344 52.03125 235.753906 53.332031 C 235.234375 54.628906 237.035156 56.582031 239.78125 57.695312 C 242.527344 58.804688 245.175781 58.652344 245.695312 57.355469"/></g></g></g></g><g clip-path="url(#aw)"><g clip-path="url(#ax)"><g clip-path="url(#ay)"><g clip-path="url(#az)"><path fill="#BC7C1A" d="M 292.570312 105.371094 C 293.523438 102.996094 292.375 100.292969 290.007812 99.335938 C 287.636719 98.375 284.941406 99.523438 283.984375 101.894531 C 283.03125 104.265625 284.179688 106.96875 286.546875 107.929688 C 288.917969 108.886719 291.613281 107.742188 292.570312 105.371094"/></g></g></g></g></svg>